<svg width="26" height="20" viewBox="0 0 26 20" fill="none" xmlns="http://www.w3.org/2000/svg">
<g id="phone 3">
<path id="Vector" d="M23.5415 14.0999V16.5999C23.5426 16.832 23.4838 17.0617 23.3687 17.2744C23.2536 17.487 23.0849 17.6779 22.8732 17.8348C22.6616 17.9917 22.4117 18.1112 22.1396 18.1855C21.8675 18.2599 21.5792 18.2875 21.2931 18.2666C18.1195 17.988 15.071 17.1117 12.3925 15.7083C9.9006 14.4288 7.78788 12.7217 6.20441 10.7083C4.4614 8.53426 3.37669 6.05908 3.03816 3.48325C3.01238 3.25281 3.04628 3.02055 3.13768 2.80127C3.22909 2.58199 3.376 2.38049 3.56906 2.2096C3.76213 2.03871 3.99711 1.90218 4.25906 1.80869C4.52101 1.7152 4.80418 1.6668 5.09055 1.66658H8.18461C8.68513 1.6626 9.17037 1.80582 9.54987 2.06953C9.92938 2.33324 10.1773 2.69946 10.2473 3.09992C10.3779 3.89997 10.6201 4.68552 10.9693 5.44158C11.108 5.73985 11.1381 6.06401 11.0558 6.37565C10.9735 6.68729 10.7824 6.97334 10.5052 7.19992L9.19533 8.25825C10.6635 10.3445 12.8014 12.072 15.3835 13.2583L16.6933 12.1999C16.9737 11.9759 17.3277 11.8215 17.7134 11.755C18.0991 11.6885 18.5003 11.7128 18.8694 11.8249C19.8051 12.107 20.7774 12.3027 21.7675 12.4083C22.2685 12.4654 22.7261 12.6693 23.0531 12.9812C23.3802 13.2931 23.554 13.6912 23.5415 14.0999Z" stroke="#00ABE6" stroke-width="1.3" stroke-linecap="round" stroke-linejoin="round"/>
</g>
</svg>
