<svg width="315" height="69" viewBox="0 0 315 69" fill="none" xmlns="http://www.w3.org/2000/svg">
<path d="M25.8963 1.20508H87.1354V67.7976H25.8963C19.2513 67.7778 12.8842 65.145 8.18608 60.4745C3.48793 55.804 0.840546 49.4754 0.822266 42.8712V26.1252C0.841381 19.5218 3.48924 13.1943 8.18739 8.52501C12.8855 3.85568 19.2521 1.22408 25.8963 1.20508Z" fill="#EFE1D4"/>
<path d="M314.178 26.1252V42.8712C314.159 49.4757 311.511 55.8043 306.812 60.4747C302.113 65.1451 295.746 67.7778 289.101 67.7976H94.1851V1.20508H289.101C295.745 1.22407 302.112 3.85558 306.811 8.52481C311.509 13.194 314.158 19.5215 314.178 26.1252Z" fill="#EFE1D4"/>
<path d="M113.151 38.5353L109.73 46.4935H107.944L119.445 19.457H121.389L134.058 46.4935H130.278L126.548 38.5353H113.151ZM119.64 23.793H119.486L113.888 36.8072H125.742L119.64 23.793Z" fill="#313454"/>
<path d="M157.374 46.4935H153.878L147.66 30.9935H147.42L142.95 42.1543C142.652 42.9396 142.308 43.7068 141.92 44.4523C141.651 44.9794 141.319 45.4724 140.931 45.9205C140.637 46.263 140.263 46.5285 139.841 46.6938C139.417 46.8412 138.971 46.9133 138.521 46.9067C137.432 46.9067 136.592 46.6229 136.001 46.0552L136.631 44.0077C136.921 44.2524 137.238 44.4625 137.576 44.6338C137.92 44.8295 138.308 44.9371 138.704 44.9469C139.024 44.9462 139.333 44.8356 139.58 44.6338C139.865 44.3983 140.107 44.1168 140.298 43.8011C140.507 43.4619 140.689 43.107 140.843 42.7398C140.998 42.3683 141.14 42.0396 141.268 41.7536L147.178 27.1929H149.509L157.374 46.4935Z" fill="#313454"/>
<path d="M164.566 27.1807V35.9465H169.228C169.858 35.9465 170.622 35.9852 171.521 36.0624C172.417 36.1342 173.296 36.3455 174.126 36.6885C174.956 37.0373 175.684 37.5886 176.243 38.2914C176.826 39.0156 177.118 40.0331 177.118 41.3438C177.13 42.0872 176.963 42.8225 176.63 43.4883C176.318 44.1041 175.891 44.6546 175.37 45.11C174.844 45.5714 174.23 45.9237 173.565 46.1463C172.896 46.375 172.194 46.4924 171.486 46.4938H161.261V27.1807H164.566ZM169.757 44.9472C170.72 44.9646 171.661 44.6591 172.428 44.08C173.197 43.4998 173.581 42.6044 173.581 41.3939C173.581 40.3921 173.386 39.6136 172.995 39.0584C172.652 38.5413 172.191 38.1121 171.65 37.8062C171.184 37.5512 170.673 37.3876 170.144 37.324C169.65 37.2739 169.287 37.2458 169.054 37.2458H164.566V44.9316L169.757 44.9472Z" fill="#313454"/>
<path d="M197.48 29.6161H197.637C197.974 28.7365 198.613 28.0042 199.442 27.5498C200.471 26.9911 201.632 26.7185 202.803 26.7609C204.437 26.7609 205.765 27.1021 206.788 27.7846C207.78 28.4306 208.6 29.3048 209.179 30.333C209.752 31.3605 210.147 32.4773 210.344 33.6358C210.543 34.706 210.648 35.7911 210.659 36.8792C210.649 37.9611 210.543 39.0401 210.344 40.1038C210.144 41.2557 209.75 42.3659 209.179 43.3879C208.599 44.4154 207.779 45.2894 206.788 45.9363C205.765 46.6187 204.437 46.96 202.803 46.96C201.632 47.0029 200.47 46.7292 199.442 46.1679C198.613 45.714 197.973 44.9815 197.637 44.1017H197.48V56.1516H194.179V44.0985H194.021C193.898 44.4451 193.722 44.7704 193.498 45.0628C193.223 45.4287 192.887 45.7462 192.506 46.002C192.033 46.3101 191.516 46.5445 190.972 46.697C190.269 46.8879 189.543 46.9786 188.814 46.9662C187.208 46.9662 185.893 46.625 184.87 45.9425C183.88 45.2957 183.06 44.4217 182.48 43.3941C181.908 42.3722 181.514 41.262 181.314 40.1101C181.115 39.0463 181.01 37.9674 180.999 36.8855C181.01 35.7974 181.116 34.7123 181.314 33.6421C181.512 32.4836 181.906 31.3668 182.48 30.3392C183.059 29.3111 183.879 28.4369 184.87 27.7909C185.895 27.1084 187.21 26.7671 188.814 26.7671C189.543 26.7548 190.269 26.8455 190.972 27.0364C191.516 27.1889 192.033 27.4233 192.506 27.7314C192.887 27.9869 193.223 28.3044 193.498 28.6706C193.721 28.9645 193.898 29.2908 194.021 29.638H194.179V19.457H197.48V29.6161ZM194.081 34.3121C194.022 33.3535 193.839 32.4065 193.536 31.4945C193.256 30.6373 192.77 29.8613 192.119 29.2341C191.47 28.608 190.562 28.2949 189.397 28.2949C188.867 28.3064 188.342 28.4048 187.844 28.5861C187.205 28.8277 186.646 29.2419 186.231 29.782C185.637 30.5602 185.202 31.446 184.949 32.3898C184.558 33.8502 184.381 35.3591 184.423 36.8698C184.38 38.3723 184.557 39.873 184.949 41.3248C185.208 42.2663 185.643 43.1509 186.231 43.9326C186.642 44.4812 187.201 44.9025 187.844 45.1473C188.342 45.3286 188.867 45.427 189.397 45.4385C190.562 45.4385 191.47 45.1254 192.119 44.4993C192.77 43.8721 193.256 43.0961 193.536 42.2389C193.839 41.3269 194.022 40.3799 194.081 39.4213C194.144 38.432 194.179 37.5742 194.179 36.8542C194.179 36.1341 194.144 35.2982 194.081 34.3058V34.3121ZM197.577 39.4307C197.636 40.3843 197.819 41.3262 198.122 42.2327C198.404 43.0946 198.89 43.8764 199.54 44.5118C200.189 45.1379 201.096 45.451 202.262 45.451C202.857 45.4458 203.445 45.3212 203.991 45.0847C204.633 44.7898 205.183 44.3293 205.585 43.751C206.134 42.9528 206.535 42.0632 206.769 41.1244C207.113 39.7351 207.27 38.3065 207.235 36.8761C207.269 35.4395 207.113 34.0048 206.769 32.609C206.541 31.6682 206.14 30.7776 205.585 29.9823C205.179 29.4126 204.629 28.9591 203.991 28.6675C203.445 28.431 202.857 28.3064 202.262 28.3012C201.096 28.3012 200.189 28.6142 199.54 29.2404C198.887 29.8659 198.4 30.6425 198.122 31.5007C197.818 32.4124 197.635 33.3596 197.577 34.3183C197.514 35.3108 197.48 36.1686 197.48 36.8886C197.48 37.6087 197.505 38.4477 197.577 39.4245V39.4307Z" fill="#313454"/>
<path d="M222.85 26.7577C224.74 26.7577 226.204 27.0207 227.244 27.5466C228.195 27.9937 228.988 28.7147 229.521 29.616C230.017 30.5196 230.302 31.5219 230.356 32.5494C230.436 33.6577 230.475 34.791 230.473 35.9494V46.4935H227.323V44.6151C226.497 45.3829 225.517 45.9686 224.447 46.3338C223.328 46.7466 222.144 46.9586 220.95 46.9599C219.935 46.9792 218.927 46.7817 217.996 46.3808C217.188 46.0284 216.461 45.516 215.86 44.8749C215.298 44.2692 214.861 43.5597 214.575 42.7867C214.294 42.0331 214.15 41.236 214.149 40.4325C214.153 39.5868 214.311 38.7489 214.616 37.9592C214.927 37.1336 215.403 36.3788 216.014 35.7396C216.666 35.0616 217.445 34.5171 218.307 34.1367C219.286 33.7066 220.347 33.4929 221.416 33.5106C222.559 33.5063 223.69 33.7354 224.74 34.1837C225.744 34.6038 226.63 35.2603 227.323 36.0965V34.4372C227.323 32.3251 227.008 30.7597 226.378 29.7412C225.748 28.7227 224.581 28.2009 222.878 28.1759C222.23 28.1649 221.585 28.2558 220.966 28.4451C220.441 28.6158 219.947 28.8706 219.504 29.1996C219.055 29.5428 218.654 29.9451 218.314 30.3955C217.948 30.8745 217.586 31.4068 217.221 31.9984L215.227 29.9917C215.589 29.6066 215.973 29.2184 216.373 28.8333C216.814 28.4183 217.311 28.0673 217.851 27.7908C218.51 27.4542 219.21 27.2007 219.933 27.0363C220.891 26.8305 221.87 26.737 222.85 26.7577ZM227.326 38.8452C227.164 38.4719 226.974 38.1109 226.759 37.7651C226.496 37.3277 226.178 36.9249 225.814 36.5661C225.402 36.1657 224.927 35.8337 224.409 35.5831C223.8 35.2976 223.132 35.1581 222.459 35.1761C221.744 35.1685 221.037 35.3204 220.39 35.6206C219.792 35.8991 219.257 36.2929 218.815 36.779C218.376 37.2699 218.038 37.8409 217.819 38.4602C217.583 39.1031 217.464 39.7825 217.466 40.4669C217.448 41.2067 217.602 41.9406 217.917 42.6114C218.199 43.1932 218.589 43.7168 219.067 44.1548C219.524 44.5688 220.059 44.888 220.642 45.094C221.165 45.293 221.719 45.399 222.28 45.4071C222.792 45.4049 223.301 45.3138 223.782 45.1379C224.296 44.9543 224.782 44.7004 225.225 44.3834C226.149 43.7295 226.883 42.8437 227.351 41.8162L227.326 38.8452Z" fill="#313454"/>
<path d="M238.247 19.4572H247.984C249.186 19.4318 250.383 19.6347 251.509 20.0552C252.419 20.3996 253.252 20.9175 253.962 21.5798C254.571 22.1597 255.054 22.8562 255.383 23.6273C255.682 24.3201 255.841 25.0648 255.849 25.8187C255.856 26.6358 255.67 27.443 255.307 28.1761C254.946 28.9044 254.452 29.5595 253.849 30.1077C253.224 30.6727 252.509 31.1298 251.732 31.4602C250.923 31.8082 250.05 31.9852 249.168 31.9799V32.1333C249.923 32.1819 250.675 32.2728 251.42 32.4057C252.373 32.5701 253.292 32.8873 254.142 33.3449C255.049 33.8329 255.833 34.519 256.435 35.3516C257.08 36.2282 257.403 37.4001 257.405 38.8674C257.402 39.8087 257.237 40.7426 256.917 41.6286C256.586 42.555 256.048 43.3944 255.342 44.0831C254.516 44.8644 253.532 45.463 252.457 45.8394C251.039 46.3256 249.546 46.5546 248.047 46.5156H238.247V19.4572ZM246.437 31.2755C247.19 31.2816 247.937 31.1511 248.642 30.8904C249.312 30.6423 249.931 30.2753 250.469 29.8072C251.008 29.34 251.437 28.762 251.729 28.1134C252.021 27.4647 252.167 26.7608 252.157 26.0504C252.153 25.4454 252.046 24.8454 251.842 24.2753C251.633 23.681 251.294 23.1401 250.85 22.6912C250.353 22.2 249.757 21.8182 249.102 21.5704C248.275 21.2693 247.399 21.1259 246.519 21.1478H241.781V31.2755H246.437ZM247.426 44.7937C248.227 44.7986 249.024 44.6749 249.786 44.4274C250.5 44.1992 251.158 43.8236 251.716 43.3254C252.268 42.828 252.712 42.224 253.021 41.5504C253.359 40.7976 253.526 39.9797 253.509 39.1554C253.512 38.3484 253.361 37.5482 253.062 36.798C252.76 36.0487 252.294 35.3759 251.698 34.8288C251.024 34.2258 250.234 33.7656 249.376 33.4764C248.309 33.1213 247.188 32.9518 246.062 32.9754H241.781V44.7937H247.426Z" fill="#313454"/>
<path d="M264.128 37.6869C264.08 39.0095 264.319 40.3268 264.827 41.5501C265.219 42.4567 265.815 43.262 266.569 43.9044C267.232 44.4529 268.005 44.8552 268.837 45.0846C269.588 45.2898 270.364 45.395 271.143 45.3977C271.737 45.4045 272.33 45.334 272.907 45.1879C273.438 45.0447 273.951 44.8431 274.438 44.5869C274.953 44.3143 275.439 43.9912 275.89 43.6226C276.369 43.2386 276.879 42.8139 277.421 42.3484L278.662 43.585C277.635 44.6655 276.391 45.5188 275.011 46.0896C273.555 46.6797 271.996 46.9756 270.424 46.9599C268.895 46.9957 267.376 46.6987 265.974 46.0896C264.777 45.5567 263.715 44.7652 262.864 43.7729C262.048 42.8057 261.427 41.6905 261.037 40.4888C260.639 39.276 260.436 38.008 260.436 36.732C260.411 35.3102 260.648 33.8959 261.135 32.5588C261.564 31.396 262.226 30.3311 263.079 29.4281C263.898 28.5735 264.891 27.9022 265.992 27.459C267.153 27.0045 268.392 26.779 269.64 26.7953C270.847 26.7923 272.046 27.0044 273.178 27.4214C274.277 27.8252 275.277 28.4582 276.11 29.2779C276.994 30.1681 277.677 31.2353 278.114 32.4085C278.635 33.844 278.885 35.3628 278.851 36.8885V37.6994L264.128 37.6869ZM275.436 36.1434C275.436 33.6389 274.928 31.6749 273.912 30.2515C273.441 29.5632 272.802 29.0052 272.055 28.63C271.308 28.2548 270.477 28.0748 269.64 28.107C268.768 28.0867 267.909 28.3218 267.171 28.7832C266.467 29.2428 265.879 29.8578 265.454 30.5802C264.984 31.3777 264.645 32.2442 264.449 33.1474C264.233 34.1315 264.128 35.1363 264.134 36.1434H275.436Z" fill="#313454"/>
<path d="M289.349 28.7272H281.575V27.1807H300.425V28.7272H292.654V46.4938H289.349V28.7272Z" fill="#313454"/>
<path d="M78.8728 47.6174C66.9217 52.9113 57.9694 47.2354 53.6949 35.7208C53.6732 35.6643 53.6648 35.6037 53.6702 35.5434C53.6757 35.4832 53.6949 35.425 53.7264 35.3733C54.9864 33.3415 64.3072 19.5979 66.6949 14.7422C57.708 17.8196 59.9098 17.9543 55.0399 25.4272C50.7969 31.6635 52.3656 31.773 49.4298 24.9325C44.1819 8.90975 24.5385 19.457 17.8038 28.8333C10.2438 40.492 22.9981 61.8181 36.729 49.9466C40.1278 47.3638 43.1455 44.3427 46.4089 41.6002C46.6357 41.403 46.7743 41.4343 46.9066 41.7067C53.9847 58.5622 65.6145 56.1735 78.939 47.7363L78.8728 47.6174ZM44.9442 38.3161C44.9843 38.4415 44.9953 38.5743 44.9762 38.7045C44.9571 38.8346 44.9084 38.9588 44.8339 39.0675C42.9439 41.8256 34.6374 51.227 30.4794 48.1715C24.3967 43.7072 21.2373 33.7704 23.3982 26.4603C24.9732 21.7048 31.4055 20.0706 35.3461 22.9884C40.1719 26.6419 43.1739 32.7404 44.9442 38.3161Z" fill="#313454"/>
</svg>
