<svg width="315" height="66" viewBox="0 0 315 66" fill="none" xmlns="http://www.w3.org/2000/svg">
<path d="M25.8963 1.1377H87.1354V63.9817H25.8963C19.2513 63.963 12.8842 61.4785 8.18608 57.0709C3.48793 52.6633 0.840546 46.6909 0.822266 40.4584V24.6551C0.841381 18.4234 3.48924 12.4521 8.18739 8.04559C12.8855 3.6391 19.2521 1.15562 25.8963 1.1377Z" fill="#323653"/>
<path d="M314.178 24.6551V40.4584C314.159 46.6912 311.511 52.6636 306.812 57.0711C302.113 61.4786 295.746 63.963 289.101 63.9817H94.1851V1.1377H289.101C295.745 1.15562 302.112 3.639 306.811 8.0454C311.509 12.4518 314.158 18.4231 314.178 24.6551Z" fill="#323653"/>
<path d="M113.151 36.3662L109.73 43.8764H107.944L119.445 18.3618H121.389L134.058 43.8764H130.278L126.548 36.3662H113.151ZM119.64 22.4537H119.486L113.888 34.7354H125.742L119.64 22.4537Z" fill="#EFE1D4"/>
<path d="M157.374 43.8763H153.878L147.66 29.2488H147.42L142.95 39.7814C142.652 40.5224 142.308 41.2465 141.92 41.95C141.651 42.4474 141.319 42.9127 140.931 43.3356C140.637 43.6587 140.263 43.9093 139.841 44.0654C139.417 44.2044 138.971 44.2724 138.521 44.2663C137.432 44.2663 136.592 43.9984 136.001 43.4626L136.631 41.5304C136.921 41.7613 137.238 41.9596 137.576 42.1213C137.92 42.306 138.308 42.4075 138.704 42.4168C139.024 42.4161 139.333 42.3117 139.58 42.1213C139.865 41.899 140.107 41.6334 140.298 41.3354C140.507 41.0153 140.689 40.6805 140.843 40.3339C140.998 39.9833 141.14 39.6731 141.268 39.4032L147.178 25.6621H149.509L157.374 43.8763Z" fill="#EFE1D4"/>
<path d="M164.566 25.6504V33.9228H169.228C169.858 33.9228 170.622 33.9593 171.521 34.0322C172.417 34.1 173.296 34.2994 174.126 34.623C174.956 34.9522 175.684 35.4725 176.243 36.1357C176.826 36.8192 177.118 37.7794 177.118 39.0163C177.13 39.7178 176.963 40.4118 176.63 41.0401C176.318 41.6212 175.891 42.1407 175.37 42.5705C174.844 43.0059 174.23 43.3384 173.565 43.5484C172.896 43.7643 172.194 43.8751 171.486 43.8764H161.261V25.6504H164.566ZM169.757 42.4169C170.72 42.4333 171.661 42.145 172.428 41.5985C173.197 41.0509 173.581 40.206 173.581 39.0636C173.581 38.1182 173.386 37.3835 172.995 36.8596C172.652 36.3715 172.191 35.9665 171.65 35.6778C171.184 35.4372 170.673 35.2828 170.144 35.2228C169.65 35.1755 169.287 35.1489 169.054 35.1489H164.566V42.4021L169.757 42.4169Z" fill="#EFE1D4"/>
<path d="M197.48 27.949H197.637C197.974 27.1189 198.613 26.4279 199.442 25.9991C200.471 25.4718 201.632 25.2146 202.803 25.2545C204.437 25.2545 205.765 25.5766 206.788 26.2206C207.78 26.8303 208.6 27.6552 209.179 28.6256C209.752 29.5953 210.147 30.6492 210.344 31.7425C210.543 32.7524 210.648 33.7765 210.659 34.8033C210.649 35.8243 210.543 36.8425 210.344 37.8464C210.144 38.9335 209.75 39.9811 209.179 40.9456C208.599 41.9153 207.779 42.7401 206.788 43.3505C205.765 43.9946 204.437 44.3166 202.803 44.3166C201.632 44.3572 200.47 44.0988 199.442 43.5692C198.613 43.1408 197.973 42.4496 197.637 41.6192H197.48V52.9909H194.179V41.6163H194.021C193.898 41.9433 193.722 42.2503 193.498 42.5262C193.223 42.8716 192.887 43.1711 192.506 43.4126C192.033 43.7033 191.516 43.9245 190.972 44.0685C190.269 44.2486 189.543 44.3342 188.814 44.3225C187.208 44.3225 185.893 44.0005 184.87 43.3564C183.88 42.746 183.06 41.9212 182.48 40.9515C181.908 39.9871 181.514 38.9394 181.314 37.8523C181.115 36.8484 181.01 35.8302 180.999 34.8092C181.01 33.7824 181.116 32.7583 181.314 31.7484C181.512 30.6551 181.906 29.6012 182.48 28.6315C183.059 27.6612 183.879 26.8362 184.87 26.2266C185.895 25.5825 187.21 25.2604 188.814 25.2604C189.543 25.2488 190.269 25.3343 190.972 25.5145C191.516 25.6585 192.033 25.8797 192.506 26.1704C192.887 26.4115 193.223 26.7111 193.498 27.0568C193.721 27.3341 193.898 27.642 194.021 27.9697H194.179V18.3618H197.48V27.949ZM194.081 32.3807C194.022 31.4761 193.839 30.5824 193.536 29.7217C193.256 28.9128 192.77 28.1804 192.119 27.5886C191.47 26.9977 190.562 26.7022 189.397 26.7022C188.867 26.713 188.342 26.8059 187.844 26.977C187.205 27.205 186.646 27.5959 186.231 28.1056C185.637 28.84 185.202 29.6759 184.949 30.5666C184.558 31.9448 184.381 33.3688 184.423 34.7944C184.38 36.2123 184.557 37.6286 184.949 38.9986C185.208 39.8871 185.643 40.722 186.231 41.4597C186.642 41.9774 187.201 42.3749 187.844 42.606C188.342 42.7771 188.867 42.8699 189.397 42.8808C190.562 42.8808 191.47 42.5853 192.119 41.9944C192.77 41.4026 193.256 40.6702 193.536 39.8613C193.839 39.0006 194.022 38.1069 194.081 37.2023C194.144 36.2687 194.179 35.4592 194.179 34.7797C194.179 34.1002 194.144 33.3113 194.081 32.3748V32.3807ZM197.577 37.2112C197.636 38.111 197.819 38.9999 198.122 39.8554C198.404 40.6688 198.89 41.4066 199.54 42.0062C200.189 42.5971 201.096 42.8926 202.262 42.8926C202.857 42.8876 203.445 42.7701 203.991 42.5469C204.633 42.2686 205.183 41.834 205.585 41.2883C206.134 40.535 206.535 39.6955 206.769 38.8095C207.113 37.4984 207.27 36.1502 207.235 34.8004C207.269 33.4447 207.113 32.0907 206.769 30.7734C206.541 29.8856 206.14 29.0451 205.585 28.2947C205.179 27.757 204.629 27.329 203.991 27.0538C203.445 26.8306 202.857 26.7131 202.262 26.7081C201.096 26.7081 200.189 27.0036 199.54 27.5945C198.887 28.1848 198.4 28.9176 198.122 29.7276C197.818 30.5879 197.635 31.4818 197.577 32.3866C197.514 33.3231 197.48 34.1327 197.48 34.8122C197.48 35.4917 197.505 36.2835 197.577 37.2053V37.2112Z" fill="#EFE1D4"/>
<path d="M222.85 25.2517C224.74 25.2517 226.204 25.4999 227.244 25.9962C228.195 26.4181 228.988 27.0985 229.521 27.9491C230.017 28.8018 230.302 29.7477 230.356 30.7174C230.436 31.7633 230.475 32.8328 230.473 33.9259V43.8765H227.323V42.1038C226.497 42.8285 225.517 43.3812 224.447 43.7258C223.328 44.1154 222.144 44.3155 220.95 44.3167C219.935 44.3349 218.927 44.1485 217.996 43.7702C217.188 43.4376 216.461 42.9541 215.86 42.3491C215.298 41.7774 214.861 41.1079 214.575 40.3785C214.294 39.6672 214.15 38.915 214.149 38.1567C214.153 37.3587 214.311 36.5679 214.616 35.8227C214.927 35.0436 215.403 34.3312 216.014 33.728C216.666 33.0882 217.445 32.5743 218.307 32.2153C219.286 31.8094 220.347 31.6078 221.416 31.6244C222.559 31.6204 223.69 31.8366 224.74 32.2596C225.744 32.6561 226.63 33.2756 227.323 34.0648V32.4989C227.323 30.5057 227.008 29.0285 226.378 28.0673C225.748 27.1061 224.581 26.6137 222.878 26.5901C222.23 26.5797 221.585 26.6654 220.966 26.8441C220.441 27.0051 219.947 27.2457 219.504 27.5562C219.055 27.88 218.654 28.2597 218.314 28.6848C217.948 29.1368 217.586 29.639 217.221 30.1974L215.227 28.3036C215.589 27.9402 215.973 27.5739 216.373 27.2105C216.814 26.8188 217.311 26.4876 217.851 26.2267C218.51 25.9089 219.21 25.6698 219.933 25.5146C220.891 25.3204 221.87 25.2321 222.85 25.2517ZM227.326 36.6588C227.164 36.3065 226.974 35.9658 226.759 35.6395C226.496 35.2267 226.178 34.8465 225.814 34.508C225.402 34.1301 224.927 33.8168 224.409 33.5803C223.8 33.3108 223.132 33.1793 222.459 33.1962C221.744 33.189 221.037 33.3324 220.39 33.6157C219.792 33.8786 219.257 34.2501 218.815 34.7089C218.376 35.1721 218.038 35.711 217.819 36.2954C217.583 36.9022 217.464 37.5434 217.466 38.1892C217.448 38.8873 217.602 39.58 217.917 40.213C218.199 40.762 218.589 41.2561 219.067 41.6695C219.524 42.0602 220.059 42.3615 220.642 42.5559C221.165 42.7437 221.719 42.8437 222.28 42.8513C222.792 42.8492 223.301 42.7632 223.782 42.5972C224.296 42.424 224.782 42.1844 225.225 41.8852C226.149 41.2681 226.883 40.4322 227.351 39.4626L227.326 36.6588Z" fill="#EFE1D4"/>
<path d="M238.247 18.3619H247.984C249.186 18.3379 250.383 18.5294 251.509 18.9262C252.419 19.2512 253.252 19.74 253.962 20.365C254.571 20.9122 255.054 21.5696 255.383 22.2972C255.682 22.951 255.841 23.6539 255.849 24.3653C255.856 25.1363 255.67 25.8982 255.307 26.59C254.946 27.2773 254.452 27.8955 253.849 28.4129C253.224 28.946 252.509 29.3774 251.732 29.6892C250.923 30.0176 250.05 30.1847 249.168 30.1797V30.3244C249.923 30.3703 250.675 30.4561 251.42 30.5815C252.373 30.7366 253.292 31.0359 254.142 31.4678C255.049 31.9283 255.833 32.5758 256.435 33.3616C257.08 34.1888 257.403 35.2948 257.405 36.6794C257.402 37.5678 257.237 38.4491 256.917 39.2853C256.586 40.1595 256.048 40.9517 255.342 41.6015C254.516 42.3389 253.532 42.9038 252.457 43.259C251.039 43.7178 249.546 43.934 248.047 43.8972H238.247V18.3619ZM246.437 29.5149C247.19 29.5207 247.937 29.3975 248.642 29.1515C249.312 28.9173 249.931 28.571 250.469 28.1293C251.008 27.6884 251.437 27.1429 251.729 26.5308C252.021 25.9186 252.167 25.2543 252.157 24.5839C252.153 24.013 252.046 23.4468 251.842 22.9088C251.633 22.3479 251.294 21.8374 250.85 21.4138C250.353 20.9503 249.757 20.59 249.102 20.3561C248.275 20.0719 247.399 19.9366 246.519 19.9573H241.781V29.5149H246.437ZM247.426 42.2722C248.227 42.2768 249.024 42.16 249.786 41.9265C250.5 41.7111 251.158 41.3567 251.716 40.8866C252.268 40.4171 252.712 39.8471 253.021 39.2114C253.359 38.5011 253.526 37.7292 253.509 36.9512C253.512 36.1897 253.361 35.4345 253.062 34.7265C252.76 34.0195 252.294 33.3845 251.698 32.8682C251.024 32.2992 250.234 31.8649 249.376 31.5919C248.309 31.2568 247.188 31.0969 246.062 31.1192H241.781V42.2722H247.426Z" fill="#EFE1D4"/>
<path d="M264.128 35.5654C264.08 36.8136 264.319 38.0568 264.827 39.2112C265.219 40.0667 265.815 40.8267 266.569 41.433C267.232 41.9506 268.005 42.3303 268.837 42.5468C269.588 42.7404 270.364 42.8397 271.143 42.8422C271.737 42.8486 272.33 42.7821 272.907 42.6443C273.438 42.5091 273.951 42.3189 274.438 42.077C274.953 41.8198 275.439 41.5149 275.89 41.1671C276.369 40.8046 276.879 40.4038 277.421 39.9646L278.662 41.1316C277.635 42.1512 276.391 42.9565 275.011 43.4952C273.555 44.052 271.996 44.3313 270.424 44.3165C268.895 44.3503 267.376 44.07 265.974 43.4952C264.777 42.9922 263.715 42.2454 262.864 41.3089C262.048 40.3961 261.427 39.3437 261.037 38.2097C260.639 37.0651 260.436 35.8685 260.436 34.6643C260.411 33.3226 260.648 31.9878 261.135 30.726C261.564 29.6286 262.226 28.6238 263.079 27.7716C263.898 26.965 264.891 26.3315 265.992 25.9132C267.153 25.4843 268.392 25.2716 269.64 25.2869C270.847 25.2841 272.046 25.4843 273.178 25.8778C274.277 26.2588 275.277 26.8562 276.11 27.6298C276.994 28.4699 277.677 29.4771 278.114 30.5842C278.635 31.9389 278.885 33.3722 278.851 34.812V35.5772L264.128 35.5654ZM275.436 34.1089C275.436 31.7453 274.928 29.8919 273.912 28.5486C273.441 27.899 272.802 27.3724 272.055 27.0184C271.308 26.6643 270.477 26.4945 269.64 26.5248C268.768 26.5056 267.909 26.7276 267.171 27.163C266.467 27.5966 265.879 28.177 265.454 28.8588C264.984 29.6114 264.645 30.4291 264.449 31.2815C264.233 32.2102 264.128 33.1584 264.134 34.1089H275.436Z" fill="#EFE1D4"/>
<path d="M289.349 27.1099H281.575V25.6504H300.425V27.1099H292.654V43.8764H289.349V27.1099Z" fill="#EFE1D4"/>
<path d="M78.8728 44.9372C66.9217 49.9332 57.9694 44.5768 53.6949 33.7103C53.6732 33.657 53.6648 33.5998 53.6702 33.543C53.6757 33.4861 53.6949 33.4312 53.7264 33.3824C54.9864 31.465 64.3072 18.4949 66.6949 13.9126C57.708 16.8168 59.9098 16.9439 55.0399 23.9961C50.7969 29.8814 52.3656 29.9848 49.4298 23.5293C44.1819 8.40846 24.5385 18.362 17.8038 27.2106C10.2438 38.2129 22.9981 58.3386 36.729 47.1353C40.1278 44.6979 43.1455 41.8469 46.4089 39.2588C46.6357 39.0727 46.7743 39.1022 46.9066 39.3592C53.9847 55.266 65.6145 53.0117 78.939 45.0495L78.8728 44.9372ZM44.9442 36.1596C44.9843 36.2779 44.9953 36.4032 44.9762 36.526C44.9571 36.6489 44.9084 36.766 44.8339 36.8686C42.9439 39.4715 34.6374 48.3437 30.4794 45.4602C24.3967 41.2471 21.2373 31.8697 23.3982 24.9711C24.9732 20.4833 31.4055 18.9411 35.3461 21.6946C40.1719 25.1424 43.1739 30.8977 44.9442 36.1596Z" fill="#EFE1D4"/>
</svg>
