<svg width="210" height="76" viewBox="0 0 210 76" fill="none" xmlns="http://www.w3.org/2000/svg">
<g id="image 1 3" clip-path="url(#clip0_0_285)">
<g id="Group">
<path id="Vector" d="M4.70643 66.4387C4.66285 66.6675 4.72822 66.8037 4.90254 66.8473" stroke="#EBF3F3" stroke-opacity="0.992" stroke-width="2"/>
<path id="Vector_2" d="M4.90254 66.8473L1.90371 69.0946C1.79821 69.1739 1.72294 69.2926 1.69126 69.4297C1.43523 70.5465 1.68581 71.4836 2.44301 72.2409C2.54844 72.3436 2.67528 72.4223 2.81488 72.4716C2.95449 72.521 3.10357 72.5398 3.25196 72.5269C10.2138 71.914 16.5057 67.3867 21.1306 62.1239C21.1975 62.0484 21.282 61.9903 21.3764 61.9548C21.4708 61.9193 21.5723 61.9075 21.6717 61.9205C21.7712 61.9334 21.8656 61.9707 21.9465 62.029C22.0274 62.0873 22.0924 62.1648 22.1356 62.2546C22.6994 63.3987 23.2469 64.9024 24.3582 65.5316C26.7769 66.9045 29.3998 64.9105 29.0648 62.2873C28.8578 60.7074 28.7734 59.3753 28.8115 58.2912C28.813 58.2247 28.8287 58.1593 28.8576 58.0994C28.8865 58.0394 28.9279 57.9864 28.979 57.9438C29.0301 57.9012 29.0897 57.8701 29.1538 57.8525C29.218 57.8349 29.2851 57.8312 29.3508 57.8417C36.4189 58.9286 42.2368 51.6963 45.3092 46.2701C49.3049 39.1931 43.9119 31.6667 36.3453 32.0916C36.2015 32.101 36.0583 32.0677 35.9336 31.9957C35.8089 31.9237 35.7081 31.8163 35.6437 31.6866C35.5794 31.557 35.5542 31.4109 35.5715 31.2664C35.5887 31.122 35.6475 30.9855 35.7407 30.874C40.1368 25.6765 57.1492 5.55698 44.0344 1.2258C35.7979 -1.49549 25.7881 6.97075 20.9099 12.6993C19.1286 14.7996 17.7722 16.1234 18.7936 18.6404C18.8266 18.7239 18.8403 18.8137 18.8337 18.9032C18.8272 18.9926 18.8005 19.0795 18.7557 19.1572C18.711 19.235 18.6493 19.3016 18.5752 19.3522C18.5011 19.4028 18.4165 19.4361 18.3278 19.4495C11.9706 20.4029 6.65935 23.2059 2.39398 27.8585C0.67803 29.7299 0.073361 31.9609 1.81383 33.9467C1.9086 34.0564 2.03307 34.1364 2.17225 34.177C2.31142 34.2176 2.45937 34.217 2.59826 34.1755C5.10955 33.3964 7.32394 32.1352 9.24145 30.3918C11.75 28.0955 17.6987 24.3608 20.6076 27.9239C22.3072 30.0077 21.7189 35.6955 21.6127 38.3596C21.6085 38.4559 21.5828 38.55 21.5375 38.6351C21.4922 38.7202 21.4284 38.7941 21.3508 38.8513C21.2733 38.9085 21.1838 38.9476 21.0892 38.9658C20.9945 38.9839 20.8969 38.9806 20.8037 38.9561C16.4321 37.8039 6.87998 43.4181 2.60644 45.3058C-0.441425 46.646 0.114217 50.9527 2.76169 52.1376C5.98931 53.5841 17.1757 46.3763 20.0356 44.3415C20.0944 44.2982 20.1645 44.273 20.2373 44.2689C20.3102 44.2648 20.3826 44.282 20.4459 44.3184C20.5091 44.3548 20.5604 44.4088 20.5935 44.4739C20.6265 44.5389 20.64 44.6122 20.6321 44.6847C20.0438 50.8192 17.6387 56.1092 13.4169 60.5548" stroke="#6AA0C4" stroke-opacity="0.992" stroke-width="2"/>
<path id="Vector_3" d="M13.4173 60.5548C13.2158 60.386 13.1095 60.2498 13.0986 60.1462" stroke="#EBF3F3" stroke-opacity="0.992" stroke-width="2"/>
<path id="Vector_4" d="M4.90234 66.8474L13.4167 60.5549" stroke="#80ADD1" stroke-width="2"/>
<path id="Vector_5" d="M28.1249 16.6955C27.7408 19.8172 27.6101 25.4804 28.9992 28.357C29.2988 28.978 29.6692 29.0216 30.1105 28.4877C33.9101 23.8378 41.5828 15.0856 42.498 9.42234C42.5404 9.15512 42.5203 8.8817 42.4391 8.62359C42.3579 8.36549 42.218 8.12974 42.0303 7.93488C41.8426 7.74003 41.6122 7.5914 41.3574 7.50067C41.1025 7.40994 40.83 7.37959 40.5614 7.41202C36.1735 7.9432 28.7622 11.5471 28.1249 16.6955Z" stroke="#6AA0C4" stroke-opacity="0.992" stroke-width="2"/>
<path id="Vector_6" d="M35.1034 49.8248C37.6936 47.7818 40.6353 45.1177 40.6598 41.3913C40.6651 40.8967 40.481 40.4188 40.1452 40.0556C39.8094 39.6924 39.3474 39.4715 38.8539 39.4382C35.2259 39.193 32.0364 40.1573 29.2855 42.3311C27.2508 43.9328 27.9699 49.3999 28.0843 51.9414C28.0907 52.1074 28.1466 52.2677 28.2447 52.4017C28.3429 52.5357 28.4788 52.6373 28.6351 52.6935C28.7914 52.7497 28.961 52.758 29.122 52.7171C29.283 52.6763 29.4281 52.5883 29.5388 52.4644C31.2302 50.6175 33.3792 51.1814 35.1034 49.8248Z" stroke="#6AA0C4" stroke-opacity="0.992" stroke-width="2"/>
</g>
<path id="Vector_7" d="M48.0058 14.154C44.9607 19.8635 41.251 25.2707 36.8767 30.3755C36.6642 30.6097 36.5307 30.8168 36.4763 30.9966C36.3946 31.269 36.4926 31.4133 36.7704 31.4297C42.4576 31.811 45.993 34.6413 47.3767 39.9204C47.7362 47.594 38.5191 57.8335 31.2794 58.8469C31.0233 58.8796 30.7891 58.8278 30.5767 58.6916C30.2988 58.5118 30.0237 58.4464 29.7514 58.4955C29.621 58.5176 29.5044 58.5898 29.4266 58.6967C29.3487 58.8035 29.3157 58.9366 29.3346 59.0675C29.9883 63.3088 29.351 68.212 23.9171 65.9974C22.9529 65.1748 22.2175 64.1342 21.7109 62.8757C21.6237 62.6632 21.3732 62.6959 20.9591 62.9738C16.4759 68.2692 10.9549 71.6824 4.39611 73.2133C1.21751 73.3686 1.20117 71.7914 0.988716 69.5604C0.976486 69.4262 0.999499 69.2913 1.05544 69.1694C1.11138 69.0475 1.19828 68.9428 1.30739 68.8658L4.70662 66.4387C4.66304 66.6675 4.7284 66.8037 4.90272 66.8473L1.90389 69.0946C1.79839 69.1739 1.72312 69.2926 1.69144 69.4297C1.43541 70.5465 1.68599 71.4836 2.44319 72.2409C2.54862 72.3436 2.67546 72.4223 2.81506 72.4716C2.95467 72.521 3.10375 72.5398 3.25214 72.5269C10.214 71.914 16.5058 67.3867 21.1307 62.1239C21.1977 62.0484 21.2822 61.9903 21.3766 61.9548C21.471 61.9193 21.5724 61.9076 21.6719 61.9205C21.7714 61.9334 21.8657 61.9707 21.9467 62.029C22.0276 62.0873 22.0926 62.1648 22.1358 62.2546C22.6996 63.3987 23.2471 64.9024 24.3584 65.5316C26.777 66.9045 29.4 64.9105 29.065 62.2873C28.858 60.7074 28.7735 59.3753 28.8117 58.2912C28.8132 58.2247 28.8289 58.1593 28.8578 58.0994C28.8867 58.0394 28.928 57.9864 28.9791 57.9438C29.0302 57.9012 29.0899 57.8701 29.154 57.8525C29.2181 57.8349 29.2853 57.8312 29.351 57.8417C36.4191 58.9286 42.237 51.6963 45.3093 46.2701C49.3051 39.1931 43.9121 31.6667 36.3455 32.0916C36.2017 32.1011 36.0585 32.0677 35.9338 31.9957C35.8091 31.9237 35.7083 31.8163 35.6439 31.6866C35.5795 31.557 35.5544 31.4109 35.5716 31.2665C35.5889 31.122 35.6477 30.9855 35.7409 30.874C40.137 25.6766 57.1494 5.55699 44.0346 1.22581C35.7981 -1.49549 25.7883 6.97075 20.9101 12.6994C19.1288 14.7996 17.7724 16.1234 18.7938 18.6404C18.8267 18.7239 18.8404 18.8137 18.8339 18.9032C18.8273 18.9926 18.8007 19.0795 18.7559 19.1572C18.7112 19.235 18.6494 19.3017 18.5754 19.3522C18.5013 19.4028 18.4167 19.4361 18.328 19.4495C11.9708 20.4029 6.65953 23.2059 2.39416 27.8585C0.67821 29.7299 0.0735408 31.9609 1.81401 33.9467C1.90878 34.0564 2.03325 34.1364 2.17243 34.177C2.3116 34.2176 2.45955 34.2171 2.59844 34.1755C5.10973 33.3964 7.32413 32.1352 9.24164 30.3918C11.7502 28.0955 17.6988 24.3609 20.6078 27.9239C22.3074 30.0077 21.7191 35.6955 21.6128 38.3596C21.6087 38.4559 21.583 38.5501 21.5377 38.6351C21.4924 38.7202 21.4286 38.7941 21.351 38.8513C21.2734 38.9085 21.184 38.9477 21.0893 38.9658C20.9947 38.9839 20.8971 38.9806 20.8039 38.9561C16.4323 37.8039 6.88016 43.4181 2.60662 45.3058C-0.441245 46.646 0.114397 50.9527 2.76187 52.1376C5.98949 53.5841 17.1759 46.3763 20.0358 44.3415C20.0946 44.2982 20.1646 44.273 20.2375 44.2689C20.3103 44.2648 20.3828 44.282 20.4461 44.3184C20.5093 44.3548 20.5606 44.4088 20.5937 44.4739C20.6267 44.5389 20.6402 44.6122 20.6323 44.6847C20.044 50.8192 17.6389 56.1092 13.4171 60.5548C13.2156 60.3859 13.1093 60.2497 13.0984 60.1462C16.7809 56.0874 19.107 51.1951 20.0767 45.4692C20.1475 45.0443 20.0195 44.9707 19.6926 45.2486L18.6058 46.1639L6.07121 52.6933C2.84086 53.7557 0.817121 52.5844 0 49.1794V47.5695C0.315953 46.3164 0.773541 45.5537 1.37276 45.2813C6.37354 42.9931 15.1658 37.763 20.5016 38.3024C20.6977 38.3242 20.8121 38.2397 20.8447 38.049C21.6292 33.5381 21.079 29.9042 19.1942 27.1475C10.9576 26.9105 8.89844 33.9712 1.54436 34.7475C-0.242413 32.5029 -0.422179 30.449 1.00506 28.5858C4.95447 23.4211 10.5518 20.2285 17.7969 19.0082C17.8798 18.9943 17.9578 18.9597 18.0237 18.9075C18.0897 18.8554 18.1413 18.7874 18.174 18.71C18.2066 18.6325 18.2191 18.548 18.2103 18.4644C18.2015 18.3808 18.1717 18.3008 18.1237 18.2318C17.7206 17.6489 17.6362 16.9761 17.8704 16.2133C17.9084 16.0831 17.9634 15.9594 18.0339 15.8456C22.8957 8.11484 31.4265 0.841719 40.521 0.179784C48.7331 -0.408604 51.0946 7.14236 48.0058 14.154Z" fill="#D7E6E6" fill-opacity="0.98"/>
<path id="Vector_8" d="M4.90254 66.8473L13.4169 60.5548C17.6387 56.1092 20.0438 50.8192 20.6321 44.6847C20.64 44.6122 20.6265 44.5389 20.5935 44.4739C20.5604 44.4088 20.5091 44.3548 20.4459 44.3184C20.3826 44.282 20.3102 44.2648 20.2373 44.2689C20.1645 44.273 20.0944 44.2982 20.0356 44.3415C17.1757 46.3763 5.98931 53.5841 2.76169 52.1376C0.114217 50.9527 -0.441425 46.646 2.60644 45.3058C6.87998 43.4181 16.4321 37.8039 20.8037 38.9561C20.8969 38.9806 20.9945 38.9839 21.0892 38.9658C21.1838 38.9477 21.2733 38.9085 21.3508 38.8513C21.4284 38.7941 21.4922 38.7202 21.5375 38.6351C21.5828 38.55 21.6085 38.4559 21.6127 38.3596C21.7189 35.6955 22.3072 30.0077 20.6076 27.9239C17.6987 24.3608 11.75 28.0955 9.24145 30.3918C7.32395 32.1352 5.10955 33.3964 2.59826 34.1755C2.45937 34.217 2.31142 34.2176 2.17225 34.177C2.03307 34.1364 1.9086 34.0564 1.81383 33.9467C0.073361 31.9609 0.67803 29.7299 2.39398 27.8585C6.65935 23.2059 11.9706 20.4029 18.3278 19.4495C18.4165 19.4361 18.5011 19.4028 18.5752 19.3522C18.6493 19.3016 18.711 19.235 18.7557 19.1572C18.8005 19.0795 18.8272 18.9926 18.8337 18.9032C18.8403 18.8137 18.8266 18.7239 18.7936 18.6404C17.7722 16.1234 19.1286 14.7996 20.9099 12.6993C25.7881 6.97075 35.7979 -1.49549 44.0345 1.2258C57.1492 5.55698 40.1368 25.6765 35.7407 30.874C35.6475 30.9855 35.5887 31.122 35.5715 31.2664C35.5542 31.4109 35.5794 31.557 35.6437 31.6866C35.7081 31.8163 35.8089 31.9237 35.9336 31.9957C36.0583 32.0677 36.2015 32.101 36.3453 32.0916C43.9119 31.6667 49.3049 39.1931 45.3092 46.2701C42.2368 51.6963 36.4189 58.9286 29.3508 57.8417C29.2851 57.8312 29.218 57.8349 29.1538 57.8525C29.0897 57.8701 29.0301 57.9012 28.979 57.9438C28.9279 57.9864 28.8865 58.0394 28.8576 58.0993C28.8287 58.1593 28.813 58.2247 28.8115 58.2912C28.7734 59.3753 28.8578 60.7074 29.0648 62.2873C29.3998 64.9105 26.7769 66.9045 24.3582 65.5316C23.2469 64.9024 22.6994 63.3987 22.1356 62.2546C22.0924 62.1648 22.0274 62.0873 21.9465 62.029C21.8656 61.9707 21.7712 61.9334 21.6717 61.9205C21.5723 61.9075 21.4708 61.9193 21.3764 61.9548C21.282 61.9903 21.1975 62.0484 21.1306 62.1239C16.5057 67.3867 10.2138 71.914 3.25196 72.5269C3.10357 72.5398 2.95449 72.521 2.81488 72.4716C2.67528 72.4223 2.54844 72.3436 2.44301 72.2409C1.68581 71.4836 1.43523 70.5465 1.69126 69.4297C1.72294 69.2926 1.79821 69.1739 1.90371 69.0946L4.90254 66.8473ZM28.1251 16.6955C27.7411 19.8172 27.6103 25.4804 28.9994 28.357C29.299 28.9781 29.6695 29.0216 30.1107 28.4877C33.9103 23.8378 41.5831 15.0856 42.4983 9.42236C42.5407 9.15514 42.5205 8.88172 42.4393 8.62361C42.3582 8.36551 42.2182 8.12975 42.0305 7.9349C41.8428 7.74005 41.6125 7.59142 41.3576 7.50069C41.1027 7.40996 40.8303 7.37961 40.5617 7.41204C36.1737 7.94322 28.7625 11.5471 28.1251 16.6955ZM35.1033 49.8249C37.6936 47.7819 40.6352 45.1178 40.6597 41.3914C40.665 40.8968 40.4809 40.4189 40.1451 40.0557C39.8094 39.6926 39.3474 39.4716 38.8539 39.4383C35.2259 39.1931 32.0364 40.1574 29.2854 42.3312C27.2508 43.9329 27.9699 49.4 28.0843 51.9415C28.0907 52.1075 28.1465 52.2678 28.2447 52.4018C28.3428 52.5358 28.4788 52.6374 28.6351 52.6936C28.7914 52.7499 28.9609 52.7581 29.1219 52.7172C29.2829 52.6764 29.4281 52.5884 29.5387 52.4645C31.2302 50.6176 33.3792 51.1815 35.1033 49.8249Z" fill="#005BA2"/>
<path id="Vector_9" d="M28.9992 28.357C27.6101 25.4804 27.7408 19.8172 28.1249 16.6955C28.7622 11.5471 36.1735 7.9432 40.5614 7.41202C40.83 7.37959 41.1025 7.40994 41.3574 7.50067C41.6122 7.5914 41.8426 7.74003 42.0303 7.93488C42.218 8.12974 42.3579 8.36549 42.4391 8.62359C42.5203 8.8817 42.5404 9.15512 42.498 9.42234C41.5828 15.0856 33.9101 23.8378 30.1105 28.4877C29.6692 29.0216 29.2988 28.978 28.9992 28.357ZM28.9583 26.1587C28.9365 26.8778 29.07 27.4199 29.3587 27.7849C29.5439 28.0246 29.7346 28.0274 29.9307 27.7931C32.905 24.2137 41.877 13.6064 41.9097 9.20169C41.9151 8.37359 41.4385 8.00858 40.4797 8.10664C35.3074 8.76858 28.6805 12.3561 28.5825 18.1828C28.5389 20.8469 28.6642 23.5055 28.9583 26.1587Z" fill="#D7E6E6" fill-opacity="0.98"/>
<path id="Vector_10" d="M40.4799 8.10669L40.1858 9.34884C40.1095 9.65393 39.9161 9.80647 39.6056 9.80647H39.2297C38.99 9.80647 38.7749 9.88002 38.5842 10.0271C37.9959 10.4902 37.0535 11.0268 35.757 11.637C33.676 12.6286 31.8348 14.3011 30.2332 16.6546C30.1188 16.8235 29.9718 16.8562 29.792 16.7527L29.5469 16.5974C29.5116 16.578 29.472 16.5678 29.4317 16.5679C29.3915 16.5679 29.3519 16.5783 29.3167 16.5979C29.2815 16.6175 29.252 16.6458 29.2308 16.68C29.2095 16.7143 29.1974 16.7533 29.1955 16.7936L28.9585 26.1587C28.6644 23.5055 28.5391 20.8469 28.5827 18.1828C28.6807 12.3562 35.3076 8.76862 40.4799 8.10669Z" fill="#020102" fill-opacity="0.278"/>
<path id="Vector_11" d="M66.1708 31.062C66.2199 28.4905 66.1953 25.1318 66.0973 20.9859C65.9665 15.388 59.2335 14.628 58.6288 20.4792C58.4109 22.5549 58.351 24.636 58.449 26.7226C58.4599 27.0223 58.3156 27.1721 58.016 27.1721H52.0837C52.0132 27.1722 51.9435 27.158 51.8788 27.1305C51.8141 27.103 51.7558 27.0627 51.7076 27.0122C51.6593 26.9616 51.6221 26.9018 51.5983 26.8366C51.5744 26.7713 51.5644 26.7019 51.5689 26.6327C51.8549 20.994 50.7844 14.5054 56.0304 10.9588C61.358 7.34672 69.7907 8.67877 72.3564 15.2736C73.0101 16.9625 73.3479 19.899 73.3697 24.0831C73.4187 32.157 73.4023 40.231 73.3206 48.305C73.2825 52.135 72.8576 54.908 72.0459 56.6241C69.2759 62.4508 61.5541 63.693 56.4716 60.5958C50.6374 57.0409 51.5444 48.8117 51.6588 42.7072C51.663 42.5409 51.732 42.383 51.8511 42.267C51.9702 42.1509 52.1299 42.086 52.2961 42.0861H58.0241C58.3346 42.0861 58.4817 42.2386 58.4654 42.5437C58.302 46.0168 57.0109 55.856 63.3354 54.5076C67.4537 53.6332 66.2689 42.4783 66.1218 39.3566C66.1109 39.1332 65.9938 39.0216 65.7704 39.0216H56.5043C56.3627 39.0194 56.2276 38.9616 56.1282 38.8607C56.0288 38.7598 55.9731 38.6238 55.9732 38.4822V32.0753C55.9732 31.6667 56.1774 31.4624 56.586 31.4624H65.7623C66.0292 31.4624 66.1654 31.3289 66.1708 31.062Z" fill="#323232"/>
<path id="Vector_12" d="M85.577 42.4292L85.6015 60.9798C85.6015 61.323 85.4299 61.4946 85.0867 61.4946H78.6478C78.3754 61.4946 78.2393 61.3584 78.2393 61.086V10.0107C78.2393 9.73833 78.3754 9.60213 78.6478 9.60213C83.3789 9.60213 90.2346 8.91568 94.026 10.6073C101.307 13.8598 100.138 24.369 99.7786 31.0456C99.2965 40.092 94.4264 42.3638 85.9937 42.0288C85.7159 42.0179 85.577 42.1514 85.577 42.4292ZM85.5933 17.194V34.486C85.5933 34.551 85.6192 34.6134 85.6651 34.6594C85.7111 34.7053 85.7735 34.7312 85.8385 34.7312H88.6739C89.7033 34.7312 90.6905 34.3213 91.4184 33.5918C92.1463 32.8623 92.5552 31.8729 92.5552 30.8413V20.8387C92.5552 19.807 92.1463 18.8176 91.4184 18.0881C90.6905 17.3586 89.7033 16.9488 88.6739 16.9488H85.8385C85.8063 16.9488 85.7744 16.9551 85.7447 16.9675C85.7149 16.9798 85.6879 16.9978 85.6651 17.0206C85.6424 17.0434 85.6243 17.0704 85.612 17.1001C85.5997 17.1299 85.5933 17.1618 85.5933 17.194Z" fill="#323232"/>
<path id="Vector_13" d="M121.073 33.6607C121.042 33.6846 121.017 33.7157 121 33.7513C120.984 33.7869 120.976 33.8259 120.978 33.8652C120.979 33.9044 120.99 33.9427 121.01 33.9768C121.029 34.0109 121.057 34.0398 121.09 34.0611C124.178 35.9516 125.823 38.8173 126.025 42.6581C126.344 48.6973 126.899 57.2534 120.616 60.367C116.636 62.3364 108.792 61.4784 103.816 61.5274C103.516 61.5274 103.366 61.3803 103.366 61.0861V10.019C103.366 9.75749 103.497 9.62674 103.758 9.62674C108.653 9.54502 116.416 8.91577 120.166 10.7136C126 13.5085 125.257 20.4792 125.159 25.9218C125.099 29.1688 123.737 31.7485 121.073 33.6607ZM110.72 17.2758V30.4491C110.72 30.5445 110.758 30.6359 110.826 30.7034C110.893 30.7708 110.984 30.8087 111.08 30.8087H113.727C114.828 30.8087 115.884 30.361 116.662 29.564C117.441 28.7671 117.878 27.6862 117.878 26.5592V21.1657C117.878 20.0386 117.441 18.9578 116.662 18.1608C115.884 17.3639 114.828 16.9162 113.727 16.9162H111.08C111.033 16.9162 110.986 16.9255 110.942 16.9436C110.899 16.9616 110.859 16.9881 110.826 17.0215C110.792 17.0549 110.766 17.0945 110.748 17.1382C110.73 17.1818 110.72 17.2286 110.72 17.2758ZM110.696 38.5966L110.745 53.8783C110.745 53.9672 110.78 54.0524 110.843 54.1153C110.906 54.1781 110.991 54.2134 111.08 54.2134L114.741 54.1971C115.257 54.1964 115.769 54.0803 116.246 53.8555C116.723 53.6308 117.156 53.3018 117.521 52.8873C117.885 52.4728 118.173 51.981 118.369 51.4401C118.565 50.8993 118.665 50.3198 118.663 49.7351L118.63 42.6745C118.625 41.4973 118.208 40.37 117.47 39.5396C116.731 38.7093 115.732 38.2438 114.692 38.2452L111.031 38.2616C110.942 38.2616 110.857 38.2969 110.794 38.3597C110.731 38.4225 110.696 38.5078 110.696 38.5966Z" fill="#323232"/>
<path id="Vector_14" d="M137.456 38.5393L144.337 10.027C144.364 9.90635 144.433 9.79865 144.531 9.72148C144.629 9.64431 144.75 9.60221 144.876 9.60205H153.219C153.491 9.60205 153.627 9.74098 153.627 10.0188L153.66 61.0696C153.66 61.3529 153.518 61.4945 153.235 61.4945H147.597C147.254 61.4945 147.082 61.3256 147.082 60.9879V25.7664C147.082 24.6332 146.949 24.6168 146.682 25.7173L138.094 61.135C138.068 61.238 138.01 61.3294 137.928 61.3946C137.847 61.4598 137.747 61.495 137.644 61.4945H130.74C130.467 61.4945 130.331 61.3583 130.331 61.0859V10.215C130.331 9.80635 130.535 9.60205 130.944 9.60205H136.361C136.699 9.60205 136.868 9.77366 136.868 10.1169V38.4739C136.868 40.1573 137.064 40.1791 137.456 38.5393Z" fill="#323232"/>
<path id="Vector_15" d="M168.555 41.4403C167.591 43.6631 166.455 45.3629 166.472 47.8962C166.504 52.2983 166.504 56.6948 166.472 61.0859C166.472 61.3583 166.335 61.4945 166.063 61.4945H159.747C159.338 61.4945 159.134 61.2902 159.134 60.8816V10.215C159.134 9.80635 159.338 9.60205 159.747 9.60205H166.079C166.352 9.60205 166.488 9.73825 166.488 10.0107V31.4868C166.488 31.5277 166.503 31.5667 166.529 31.5975C166.555 31.6284 166.591 31.6492 166.632 31.6568C166.672 31.6643 166.715 31.6581 166.752 31.6391C166.79 31.6202 166.821 31.5895 166.839 31.5522L176.089 10.0107C176.143 9.88932 176.23 9.78615 176.34 9.71363C176.45 9.64111 176.579 9.60235 176.71 9.60205H183.018C183.4 9.60205 183.511 9.77639 183.353 10.1251L173.54 32.3939C173.424 32.6563 173.412 32.9516 173.507 33.2193L183.361 60.9797C183.481 61.3229 183.361 61.4945 183.002 61.4945H176.342C176.216 61.495 176.093 61.456 175.989 61.3829C175.885 61.3097 175.806 61.206 175.762 61.0859L168.988 41.4567C168.975 41.4108 168.947 41.3704 168.909 41.3411C168.871 41.3118 168.825 41.295 168.778 41.2932C168.73 41.2914 168.683 41.3046 168.643 41.331C168.603 41.3574 168.572 41.3956 168.555 41.4403Z" fill="#323232"/>
<path id="Vector_16" d="M210 58.2829V61.5354L203.495 61.5844C203.357 61.5874 203.223 61.5388 203.119 61.4482C203.014 61.3575 202.948 61.2313 202.932 61.0941L201.845 52.4889C201.812 52.2274 201.665 52.0967 201.403 52.0967H193.216C192.96 52.0967 192.813 52.2247 192.775 52.4808L191.557 61.0451C191.514 61.3447 191.339 61.4945 191.034 61.4945H185.51C184.971 61.4945 184.74 61.2276 184.816 60.6937L192.121 10.0597C192.165 9.7546 192.339 9.60205 192.644 9.60205H202.613C202.869 9.60205 203.016 9.73008 203.054 9.98614L210 58.2829ZM196.967 21.2554L193.772 44.5457C193.717 44.9489 193.891 45.1504 194.295 45.1504H200.145C200.526 45.1504 200.693 44.9598 200.644 44.5784L197.498 21.2554C197.323 19.9533 197.146 19.9533 196.967 21.2554Z" fill="#323232"/>
<path id="Vector_17" d="M36.877 30.3754C41.2513 25.2706 44.961 19.8634 48.0061 14.1539C48.0715 14.4372 48.1805 14.6415 48.333 14.7668C48.6489 15.0337 48.8124 14.9602 48.8233 14.5461C48.8396 13.9959 49.0657 13.5246 49.5015 13.1324C49.8011 12.8654 49.9155 12.9281 49.8447 13.3203C48.7661 19.0489 42.2373 26.7797 38.5684 30.7023C38.5441 30.7294 38.5124 30.7488 38.4773 30.7583C38.4421 30.7677 38.405 30.7668 38.3704 30.7555C38.3358 30.7443 38.3052 30.7232 38.2823 30.6949C38.2594 30.6666 38.2453 30.6322 38.2415 30.596L38.1925 30.2119C38.1544 29.9722 38.0318 29.915 37.8248 30.0403C37.498 30.2365 37.182 30.3481 36.877 30.3754Z" fill="#020102" fill-opacity="0.278"/>
<path id="Vector_18" d="M19.1938 27.1474C17.772 28.4495 16.5599 29.155 15.5576 29.264C15.2906 29.2912 15.0401 29.373 14.8058 29.5092C12.379 30.9556 10.5813 31.7973 8.40776 34.0038C6.32138 36.1176 4.03344 36.3655 1.54395 34.7474C8.89803 33.9711 10.9572 26.9104 19.1938 27.1474Z" fill="#020102" fill-opacity="0.278"/>
<path id="Vector_19" d="M40.6598 41.3915C40.6353 45.118 37.6936 47.7821 35.1034 49.8251C33.3792 51.1816 31.2302 50.6177 29.5388 52.4646C29.4281 52.5885 29.283 52.6765 29.122 52.7174C28.961 52.7582 28.7914 52.75 28.6351 52.6938C28.4788 52.6376 28.3429 52.5359 28.2447 52.4019C28.1466 52.2679 28.0907 52.1076 28.0843 51.9416C27.9699 49.4001 27.2508 43.933 29.2855 42.3313C32.0364 40.1575 35.2259 39.1932 38.8539 39.4384C39.3474 39.4718 39.8094 39.6927 40.1452 40.0558C40.481 40.419 40.6651 40.8969 40.6598 41.3915ZM29.6205 51.5085C31.5897 50.299 33.4119 50.5524 35.4547 48.9425C38.7232 46.3819 40.1395 43.4781 39.7037 40.2311C35.324 39.6754 31.7205 40.7432 28.8932 43.4345C28.6699 43.6416 28.5609 43.8976 28.5664 44.2027L28.6236 51.5984C28.629 52.0015 28.817 52.1241 29.1874 51.9661C29.3617 51.8953 29.5061 51.7428 29.6205 51.5085Z" fill="#D7E6E6" fill-opacity="0.98"/>
<path id="Vector_20" d="M23.9172 65.9974C29.351 68.212 29.9884 63.3088 29.3347 59.0675C29.3158 58.9366 29.3488 58.8035 29.4266 58.6966C29.5045 58.5898 29.6211 58.5176 29.7514 58.4955C30.0238 58.4464 30.2989 58.5118 30.5767 58.6916C30.7892 58.8278 31.0234 58.8796 31.2794 58.8469C38.5191 57.8335 47.7363 47.594 47.3767 39.9204C47.8452 40.7649 47.9051 41.8272 47.5565 43.1075C47.4748 43.3963 47.581 43.5706 47.8752 43.6305C48.458 43.7449 48.6433 44.1808 48.4308 44.938C47.2051 49.3019 38.9195 59.2963 34.3273 60.0645C32.8075 60.3206 31.6771 60.6256 30.9363 60.9798C30.604 61.1378 30.4378 61.0342 30.4378 60.6692V60.0727C30.4378 59.4516 30.318 59.4298 30.0783 60.0073C29.5117 61.3911 29.6398 62.6687 30.4623 63.84C30.6257 64.0688 30.6911 64.3249 30.6584 64.6082C29.9557 69.9772 22.9938 68.7841 23.9172 65.9974Z" fill="#020102" fill-opacity="0.278"/>
<path id="Vector_21" d="M39.704 40.231C36.509 41.5549 33.2487 42.1106 30.5685 44.8401C30.2417 45.1669 29.874 45.216 29.4654 44.9872C29.2748 44.8782 29.1767 44.9354 29.1713 45.1588L29.0814 51.0917C29.0759 51.2551 29.1495 51.3723 29.302 51.4431C29.4219 51.4921 29.5281 51.5139 29.6207 51.5085C29.5063 51.7427 29.3619 51.8953 29.1876 51.9661C28.8172 52.1241 28.6292 52.0015 28.6238 51.5983L28.5666 44.2026C28.5612 43.8976 28.6701 43.6415 28.8935 43.4345C31.7207 40.7431 35.3242 39.6753 39.704 40.231Z" fill="#020102" fill-opacity="0.278"/>
<path id="Vector_22" d="M18.6059 46.1638C18.5024 47.4877 17.7479 48.5773 16.3425 49.4326C13.4499 51.1896 10.2468 53.3307 6.85573 53.9027C6.63783 53.9354 6.52888 53.8428 6.52888 53.6249C6.52888 53.2435 6.37635 52.933 6.07129 52.6933L18.6059 46.1638Z" fill="#020102" fill-opacity="0.278"/>
<path id="Vector_23" d="M13.0983 60.1462C13.1092 60.2498 13.2154 60.386 13.4169 60.5548L4.90254 66.8473C4.72822 66.8037 4.66285 66.6675 4.70643 66.4387L13.0983 60.1462Z" fill="#323232"/>
<path id="Vector_24" d="M20.9595 62.9739L21.4334 64.6982C21.4734 64.8378 21.4764 64.9857 21.442 65.1275C21.4077 65.2692 21.3372 65.4 21.2373 65.5072C18.6607 68.2803 15.3513 70.7128 11.3093 72.8048C8.20971 74.4066 5.90543 74.5428 4.39648 73.2134C10.9552 71.6825 16.4763 68.2694 20.9595 62.9739Z" fill="#020102" fill-opacity="0.278"/>
</g>
<defs>
<clipPath id="clip0_0_285">
<rect width="210" height="76" fill="white"/>
</clipPath>
</defs>
</svg>
