<svg width="99" height="101" viewBox="0 0 99 101" fill="none" xmlns="http://www.w3.org/2000/svg">
<g id="house 1">
<path id="Vector" d="M91.9517 45.1191L51.2682 9.30814C50.7197 8.82414 49.91 8.82815 49.3663 9.31715L9.55463 45.0001C8.94783 45.5431 8.88473 46.4911 9.41288 47.1161C9.94007 47.7411 10.8605 47.8071 11.4673 47.2621L20.0488 39.5701V87.5521C20.0488 88.3811 20.7003 89.0521 21.5051 89.0521H78.5255C79.3304 89.0521 79.9818 88.3811 79.9818 87.5521V38.5281L90.0595 47.3991C90.3343 47.6411 90.6702 47.7591 91.0051 47.7591C91.4168 47.7591 91.8255 47.5811 92.1139 47.2341C92.6362 46.6041 92.5634 45.6571 91.9517 45.1191ZM77.0692 86.0531H22.9614V36.9611L50.3313 12.4301L77.0702 35.9661L77.0692 86.0531Z" fill="black"/>
<path id="Vector_2" d="M48.5596 40.0508V55.0368H34.0149C33.2101 55.0368 32.5586 55.7078 32.5586 56.5368C32.5586 57.3658 33.2101 58.0368 34.0149 58.0368H48.5596V73.0168C48.5596 73.8458 49.211 74.5168 50.0159 74.5168C50.8207 74.5168 51.4722 73.8458 51.4722 73.0168V58.0368H66.0168C66.8217 58.0368 67.4732 57.3658 67.4732 56.5368C67.4732 55.7078 66.8217 55.0368 66.0168 55.0368H51.4722V40.0508C51.4722 39.2218 50.8207 38.5508 50.0159 38.5508C49.211 38.5508 48.5596 39.2228 48.5596 40.0508Z" fill="black"/>
</g>
</svg>
