<svg width="99" height="101" viewBox="0 0 99 101" fill="none" xmlns="http://www.w3.org/2000/svg">
<g id="vaccination 1">
<path id="Vector" d="M91.7009 6.66385C91.132 6.07885 90.2106 6.07885 89.6417 6.66385L72.0669 24.7718L69.8767 22.5168C69.6038 22.2358 69.233 22.0778 68.8466 22.0778C68.4602 22.0778 68.0902 22.2358 67.8165 22.5178L61.9776 28.5358L57.533 23.9568C57.2602 23.6758 56.8893 23.5178 56.5029 23.5178C56.1165 23.5178 55.7466 23.6758 55.4728 23.9568L49.1805 30.4378C49.1776 30.4408 49.1747 30.4408 49.1718 30.4438C49.1689 30.4468 49.1689 30.4498 49.166 30.4528L40.8815 38.9868C40.8767 38.9918 40.8708 38.9928 40.866 38.9968C40.8611 39.0009 40.8602 39.0078 40.8563 39.0128L32.5835 47.5338C32.5776 47.5398 32.5699 47.5408 32.565 47.5468C32.5602 47.5528 32.5582 47.5598 32.5524 47.5658L24.2844 56.0818C24.2776 56.0888 24.2689 56.0898 24.2621 56.0968C24.2553 56.1038 24.2534 56.1128 24.2475 56.1198L17.6796 62.8848C17.4068 63.1658 17.2534 63.5478 17.2534 63.9458C17.2534 64.3428 17.4068 64.7248 17.6796 65.0069L22.1252 69.5848L14.2592 77.6848L9.81258 73.1038C9.24365 72.5178 8.32229 72.5178 7.75336 73.1038C7.18443 73.6898 7.18443 74.6388 7.75336 75.2248L19.6582 87.4878C19.6602 87.4898 19.6611 87.4929 19.6631 87.4958C19.665 87.4988 19.6679 87.4988 19.6708 87.5008L25.3339 93.3348C25.6184 93.6278 25.9912 93.7738 26.364 93.7738C26.7369 93.7738 27.1097 93.6278 27.3941 93.3348C27.9631 92.7488 27.9631 91.7998 27.3941 91.2138L22.7524 86.4348L30.6203 78.3338L35.0689 82.9158C35.3534 83.2088 35.7262 83.3549 36.099 83.3549C36.4718 83.3549 36.8446 83.2088 37.1291 82.9158L74.9184 43.9878C75.4873 43.4018 75.4873 42.4528 74.9184 41.8668L70.4747 37.2898L76.3135 31.2648C76.8815 30.6788 76.8805 29.7298 76.3126 29.1438L74.1262 26.8938L91.7009 8.78485C92.2699 8.19885 92.2699 7.24885 91.7009 6.66385ZM20.6932 84.3129L16.3174 79.8058L24.1835 71.7048L28.5592 76.2118L20.6932 84.3129ZM36.099 79.7328L25.2233 68.5328C25.2204 68.5298 25.2194 68.5248 25.2165 68.5219C25.2136 68.5189 25.2087 68.5178 25.2058 68.5148L20.7689 63.9458L25.2961 59.2828L30.7815 64.9308C31.066 65.2238 31.4388 65.3699 31.8116 65.3699C32.1844 65.3699 32.5572 65.2238 32.8417 64.9308C33.4097 64.3448 33.4097 63.3948 32.8417 62.8098L27.3563 57.1618L33.599 50.7318L39.0805 56.3778C39.365 56.6708 39.7378 56.8168 40.1106 56.8168C40.4835 56.8168 40.8563 56.6708 41.1407 56.3778C41.7097 55.7918 41.7097 54.8418 41.1407 54.2568L35.6592 48.6108L41.9019 42.1808L47.3893 47.8278C47.6737 48.1208 48.0456 48.2668 48.4184 48.2668C48.7912 48.2668 49.164 48.1208 49.4485 47.8268C50.0165 47.2408 50.0165 46.2908 49.4475 45.7058L43.9611 40.0598L50.2058 33.6278L55.6883 39.2758C55.9718 39.5688 56.3456 39.7148 56.7184 39.7148C57.0912 39.7148 57.464 39.5688 57.7485 39.2758C58.3174 38.6908 58.3174 37.7408 57.7485 37.1548L52.266 31.5068L56.5058 27.1388L60.9436 31.7108C60.9466 31.7138 60.9466 31.7168 60.9495 31.7188L67.3883 38.3498L67.3912 38.3528L71.831 42.9268L36.099 79.7328ZM68.4155 35.1668L64.0378 30.6568L68.8475 25.6988L71.031 27.9468C71.033 27.9488 71.0339 27.9528 71.0359 27.9548C71.0378 27.9568 71.0417 27.9578 71.0437 27.9598L73.2242 30.2048L68.4155 35.1668Z" fill="black"/>
</g>
</svg>
