<svg width="99" height="101" viewBox="0 0 99 101" fill="none" xmlns="http://www.w3.org/2000/svg">
<g id="hospital 1">
<path id="Vector" d="M87.0253 78.7069V70.8739C87.0253 70.0449 86.3739 69.3739 85.569 69.3739H33.8428C28.8991 60.9169 20.2418 59.4059 16.7583 59.1469V52.4819C16.7583 51.6529 16.1069 50.9819 15.302 50.9819C14.4972 50.9819 13.8457 51.6529 13.8457 52.4819V77.5209V78.7989V90.7099C13.8457 91.5389 14.4972 92.2099 15.302 92.2099C16.1069 92.2099 16.7583 91.5389 16.7583 90.7099V80.2989H84.1224V90.7099C84.1224 91.5389 84.7739 92.2099 85.5787 92.2099C86.3836 92.2099 87.035 91.5389 87.035 90.7099V78.7989C87.034 78.7669 87.0273 78.7379 87.0253 78.7069ZM30.3311 69.3739H16.7583V62.1509C19.602 62.3859 26.0671 63.5789 30.3311 69.3739ZM84.1137 72.3739V77.2989H16.7593V72.3739" fill="black"/>
<path id="Vector_2" d="M51.1407 37.904V29.702H59.1145C59.9193 29.702 60.5708 29.031 60.5708 28.202C60.5708 27.373 59.9193 26.702 59.1145 26.702H51.1407V18.498C51.1407 17.669 50.4892 16.998 49.6844 16.998C48.8795 16.998 48.228 17.669 48.228 18.498V26.702H40.2708C39.4659 26.702 38.8145 27.373 38.8145 28.202C38.8145 29.031 39.4659 29.702 40.2708 29.702H48.228V37.904C48.228 38.733 48.8795 39.404 49.6844 39.404C50.4892 39.404 51.1407 38.733 51.1407 37.904Z" fill="black"/>
<path id="Vector_3" d="M49.6841 61.1141C50.1521 61.1141 50.5909 60.8831 50.8647 60.4921C51.555 59.5071 67.7724 36.2511 67.7724 26.4141C67.7724 16.1441 59.6579 7.78906 49.6841 7.78906C39.7132 7.78906 31.6016 16.1441 31.6016 26.4141C31.6016 36.2511 47.8132 59.5071 48.5035 60.4921C48.7773 60.8831 49.2161 61.1141 49.6841 61.1141ZM49.6841 10.7901C58.0521 10.7901 64.8598 17.7991 64.8598 26.4151C64.8598 33.2081 54.8132 49.4461 49.6841 57.0211C44.5569 49.4471 34.5142 33.2111 34.5142 26.4151C34.5142 17.7991 41.32 10.7901 49.6841 10.7901Z" fill="black"/>
</g>
</svg>
