<svg width="99" height="101" viewBox="0 0 99 101" fill="none" xmlns="http://www.w3.org/2000/svg">
<g id="18ked_bubbles 1">
<path id="Vector" d="M90.0833 18.0259H54.6484C51.8746 18.0259 49.6183 20.3499 49.6183 23.2069V27.5609H9.93187C6.36974 27.5609 3.47168 30.5459 3.47168 34.2159V64.9389C3.47168 68.6069 6.36974 71.5909 9.93187 71.5909H16.1367V84.4749C16.1367 85.0689 16.4765 85.6059 17.0037 85.8469C17.193 85.9329 17.393 85.9749 17.5921 85.9749C17.9474 85.9749 18.2989 85.8409 18.5717 85.5849L33.526 71.5909H59.5494C63.1105 71.5909 66.0086 68.6069 66.0086 64.9389V50.3289H73.0697L83.6299 60.2099C83.9037 60.4659 84.2542 60.5999 84.6095 60.5999C84.8086 60.5999 85.0095 60.5579 85.1989 60.4719C85.7261 60.2319 86.0658 59.6939 86.0658 59.0999V50.3289H90.0824C92.8542 50.3289 95.1095 48.0039 95.1095 45.1469V23.2069C95.1105 20.3499 92.8561 18.0259 90.0833 18.0259ZM63.0969 64.9379C63.0969 66.9519 61.5057 68.5899 59.5503 68.5899H32.9639C32.6018 68.5899 32.2532 68.7289 31.9843 68.9799L19.0484 81.0849V70.0899C19.0484 69.2609 18.3969 68.5899 17.5921 68.5899H9.9309C7.97459 68.5899 6.38333 66.9519 6.38333 64.9379V34.2149C6.38333 32.1999 7.97459 30.5599 9.9309 30.5599H51.06C51.0649 30.5599 51.0697 30.5609 51.0746 30.5609C51.0794 30.5609 51.0843 30.5599 51.0892 30.5599H59.5503C61.5066 30.5599 63.0969 32.1999 63.0969 34.2149V64.9379ZM92.1979 45.1469C92.1979 46.3499 91.2493 47.3289 90.0833 47.3289H84.6105C83.8066 47.3289 83.1542 47.9999 83.1542 48.8289V55.7109L74.6125 47.7189C74.3445 47.4689 73.995 47.3289 73.6328 47.3289H66.0086V34.2159C66.0086 30.5469 63.1105 27.5609 59.5494 27.5609H52.5309V23.2069C52.5309 22.0039 53.4814 21.0259 54.6484 21.0259H90.0833C91.2493 21.0259 92.1979 22.0039 92.1979 23.2069V45.1469Z" fill="#231F20"/>
</g>
</svg>
