<svg width="99" height="101" viewBox="0 0 99 101" fill="none" xmlns="http://www.w3.org/2000/svg">
<g id="kideducate_test 1">
<g id="Group">
<path id="Vector" d="M64.0274 68.0721C63.2235 68.0721 62.5711 68.7441 62.5711 69.5721V83.2821H15.0352V18.6841H62.5711V30.0841C62.5711 30.9121 63.2235 31.5841 64.0274 31.5841C64.8313 31.5841 65.4837 30.9121 65.4837 30.0841V17.1841C65.4837 16.3551 64.8313 15.6841 64.0274 15.6841H13.5789C12.775 15.6841 12.1226 16.3551 12.1226 17.1841V84.7821C12.1226 85.6111 12.775 86.2821 13.5789 86.2821H64.0274C64.8313 86.2821 65.4837 85.6111 65.4837 84.7821V69.5721C65.4837 68.7441 64.8313 68.0721 64.0274 68.0721Z" fill="#231F20"/>
<path id="Vector_2" d="M90.704 19.881C90.6263 19.491 90.4011 19.149 90.0787 18.93L82.7671 13.964C82.4447 13.745 82.0535 13.667 81.671 13.747C81.2923 13.827 80.9612 14.059 80.7486 14.392L75.3962 22.769L75.3952 22.77L47.0525 67.034C47.0273 67.073 47.0108 67.116 46.9904 67.156C46.968 67.198 46.9438 67.238 46.9253 67.282C46.8952 67.357 46.8739 67.435 46.8554 67.513C46.8515 67.53 46.8447 67.544 46.8409 67.561L46.8399 67.567C46.8389 67.571 46.838 67.576 46.837 67.581L44.5205 79.368C44.402 79.968 44.6496 80.581 45.1457 80.918C45.3894 81.084 45.669 81.166 45.9477 81.166C46.237 81.166 46.5263 81.077 46.7758 80.9L56.403 74.052C56.435 74.029 56.4603 74.001 56.4904 73.976C56.5205 73.951 56.5506 73.927 56.5787 73.899C56.6515 73.828 56.7156 73.751 56.771 73.668C56.7768 73.659 56.7855 73.653 56.7914 73.644L56.8001 73.63C56.802 73.627 56.8049 73.623 56.8069 73.619L85.1253 29.38L85.1273 29.378L90.4923 21.008C90.7049 20.676 90.7816 20.271 90.704 19.881ZM49.268 70.334L52.971 72.848L48.0913 76.319L49.268 70.334ZM55.1613 70.741L50.2865 67.432L77.0263 25.67L81.8943 28.977L55.1613 70.741ZM83.4981 26.474L78.6292 23.165L82.3807 17.294L87.2583 20.607L83.4981 26.474Z" fill="#231F20"/>
<path id="Vector_3" d="M48.2634 34.636C49.0673 34.636 49.7197 33.965 49.7197 33.136C49.7197 32.308 49.0673 31.636 48.2634 31.636H21.1702C20.3663 31.636 19.7139 32.308 19.7139 33.136C19.7139 33.965 20.3663 34.636 21.1702 34.636H48.2634Z" fill="#231F20"/>
<path id="Vector_4" d="M21.509 46.9929H48.5955C49.3993 46.9929 50.0518 46.3209 50.0518 45.4929C50.0518 44.6639 49.3993 43.9929 48.5955 43.9929H21.509C20.7052 43.9929 20.0527 44.6639 20.0527 45.4929C20.0527 46.3209 20.7052 46.9929 21.509 46.9929Z" fill="#231F20"/>
</g>
</g>
</svg>
