<svg width="99" height="101" viewBox="0 0 99 101" fill="none" xmlns="http://www.w3.org/2000/svg">
<g id="documents 1">
<path id="Vector" d="M36.0081 65.3921H54.8547C55.6586 65.3921 56.311 64.7211 56.311 63.8921C56.311 63.0631 55.6586 62.3921 54.8547 62.3921H36.0081C35.2042 62.3921 34.5518 63.0631 34.5518 63.8921C34.5518 64.7211 35.2042 65.3921 36.0081 65.3921Z" fill="black"/>
<path id="Vector_2" d="M61.5206 69.6968H28.9168C28.1129 69.6968 27.4604 70.3678 27.4604 71.1968C27.4604 72.0258 28.1129 72.6968 28.9168 72.6968H61.5206C62.3245 72.6968 62.977 72.0258 62.977 71.1968C62.977 70.3678 62.3245 69.6968 61.5206 69.6968Z" fill="black"/>
<path id="Vector_3" d="M54.8547 76.998H36.0081C35.2042 76.998 34.5518 77.669 34.5518 78.498C34.5518 79.327 35.2042 79.998 36.0081 79.998H54.8547C55.6586 79.998 56.311 79.327 56.311 78.498C56.311 77.669 55.6586 76.998 54.8547 76.998Z" fill="black"/>
<path id="Vector_4" d="M36.1653 42.4409H43.2041V49.6949C43.2041 50.5239 43.8566 51.1949 44.6604 51.1949C45.4643 51.1949 46.1168 50.5239 46.1168 49.6949V42.4409H53.1459C53.9498 42.4409 54.6022 41.7699 54.6022 40.9409C54.6022 40.1119 53.9498 39.4409 53.1459 39.4409H46.1168V32.1909C46.1168 31.3619 45.4643 30.6909 44.6604 30.6909C43.8566 30.6909 43.2041 31.3619 43.2041 32.1909V39.4409H36.1653C35.3614 39.4409 34.709 40.1119 34.709 40.9409C34.709 41.7699 35.3614 42.4409 36.1653 42.4409Z" fill="black"/>
<path id="Vector_5" d="M78.3982 12.2148H27.9021C27.0983 12.2148 26.4458 12.8858 26.4458 13.7148V20.9008H19.406C18.6021 20.9008 17.9497 21.5718 17.9497 22.4008V88.2838C17.9497 89.1128 18.6021 89.7838 19.406 89.7838H69.9099C70.7138 89.7838 71.3662 89.1128 71.3662 88.2838V81.0978H78.3982C79.2021 81.0978 79.8546 80.4268 79.8546 79.5978V13.7138C79.8546 12.8868 79.2021 12.2148 78.3982 12.2148ZM20.8623 86.7849V23.9018H68.4536V79.5318C68.4526 79.5548 68.4468 79.5768 68.4468 79.5998C68.4468 79.6228 68.4526 79.6448 68.4536 79.6678V86.7858L20.8623 86.7849ZM76.9419 78.0988H71.3662V22.4008C71.3662 21.5718 70.7138 20.9008 69.9099 20.9008H29.3584V15.2148H76.9419V78.0988Z" fill="black"/>
</g>
</svg>
