<svg width="35" height="35" viewBox="0 0 35 35" fill="none" xmlns="http://www.w3.org/2000/svg">
<g id="Capa_1" clip-path="url(#clip0_0_156)">
<g id="Group">
<g id="Group_2">
<path id="Vector" d="M17.5 0C7.83501 0 0 7.83501 0 17.5C0 27.165 7.83501 35 17.5 35C27.165 35 35 27.165 35 17.5C35 7.83501 27.165 0 17.5 0ZM18.5938 32.7578V29.5312H16.4062V32.7578C8.82328 32.2075 2.79248 26.1767 2.24219 18.5938H5.46875V16.4062H2.24219C2.79248 8.82328 8.82328 2.79248 16.4062 2.24219V5.46875H18.5938V2.24219C26.1767 2.79248 32.2075 8.82328 32.7578 16.4062H29.5312V18.5938H32.7578C32.2075 26.1767 26.1767 32.2075 18.5938 32.7578Z" fill="#BDA392"/>
</g>
</g>
<g id="Group_3">
<g id="Group_4">
<path id="Vector_2" d="M18.5938 17.0516V9.84375H16.4063V17.5C16.4046 17.7907 16.5187 18.0701 16.7235 18.2766L22.1922 23.7453L23.7344 22.2031L18.5938 17.0516Z" fill="#BDA392"/>
</g>
</g>
</g>
<defs>
<clipPath id="clip0_0_156">
<rect width="35" height="35" fill="white"/>
</clipPath>
</defs>
</svg>
