<svg width="15" height="15" viewBox="0 0 15 15" fill="none" xmlns="http://www.w3.org/2000/svg">
<g id="Layer_1">
<path id="Vector" d="M6.5625 10.7812C6.68682 10.7812 6.80605 10.7319 6.89396 10.644C6.98186 10.556 7.03125 10.4368 7.03125 10.3125C7.03125 10.1882 6.98186 10.069 6.89396 9.98104C6.80605 9.89314 6.68682 9.84375 6.5625 9.84375H1.875C1.7507 9.84368 1.63152 9.79427 1.54363 9.70637C1.45573 9.61848 1.40632 9.4993 1.40625 9.375V3.6285L5.85253 6.22284C6.06789 6.34724 6.3122 6.41274 6.56091 6.41274C6.80961 6.41274 7.05393 6.34724 7.26928 6.22284L11.7188 3.62663V5.625C11.7188 5.74932 11.7681 5.86855 11.856 5.95646C11.944 6.04436 12.0632 6.09375 12.1875 6.09375C12.3118 6.09375 12.431 6.04436 12.519 5.95646C12.6069 5.86855 12.6562 5.74932 12.6562 5.625V2.8125C12.6558 2.43966 12.5076 2.08222 12.2439 1.81858C11.9803 1.55495 11.6228 1.40666 11.25 1.40625H1.875C1.6495 1.40727 1.42754 1.4624 1.22776 1.567C1.02799 1.67161 0.856238 1.82263 0.726937 2.00738C0.562458 2.24397 0.472538 2.52437 0.46875 2.8125V9.375C0.469159 9.74784 0.617449 10.1053 0.881083 10.3689C1.14472 10.6326 1.50216 10.7808 1.875 10.7812H6.5625ZM1.875 2.34375H11.25C11.3317 2.34467 11.4117 2.3672 11.4819 2.40906C11.552 2.45092 11.6099 2.51061 11.6495 2.58206L6.79688 5.4135C6.72508 5.45478 6.64372 5.4765 6.56091 5.4765C6.47809 5.4765 6.39673 5.45478 6.32494 5.4135L1.47464 2.58342C1.51416 2.51158 1.57205 2.45154 1.6424 2.40942C1.71274 2.36731 1.79302 2.34465 1.875 2.34375Z" fill="white"/>
<path id="Vector_2" d="M11.25 7.03125C10.3798 7.03125 9.54516 7.37695 8.92981 7.99231C8.31445 8.60766 7.96875 9.44226 7.96875 10.3125C7.96875 11.1827 8.31445 12.0173 8.92981 12.6327C9.54516 13.248 10.3798 13.5938 11.25 13.5938C11.3743 13.5938 11.4935 13.5444 11.5815 13.4565C11.6694 13.3685 11.7188 13.2493 11.7188 13.125C11.7188 13.0007 11.6694 12.8815 11.5815 12.7935C11.4935 12.7056 11.3743 12.6562 11.25 12.6562C10.7865 12.6562 10.3333 12.5188 9.94788 12.2613C9.56245 12.0037 9.26205 11.6377 9.08466 11.2094C8.90726 10.7812 8.86085 10.3099 8.95128 9.85526C9.04172 9.40061 9.26494 8.983 9.59272 8.65522C9.9205 8.32744 10.3381 8.10422 10.7928 8.01378C11.2474 7.92335 11.7187 7.96976 12.1469 8.14716C12.5752 8.32455 12.9412 8.62495 13.1988 9.01038C13.4563 9.39581 13.5938 9.84895 13.5938 10.3125V10.7812C13.5938 10.9056 13.5444 11.0248 13.4565 11.1127C13.3685 11.2006 13.2493 11.25 13.125 11.25C13.0007 11.25 12.8815 11.2006 12.7935 11.1127C12.7056 11.0248 12.6562 10.9056 12.6562 10.7812V10.3125C12.6562 10.0344 12.5738 9.76249 12.4193 9.53123C12.2647 9.29997 12.0451 9.11973 11.7881 9.01329C11.5312 8.90686 11.2484 8.87901 10.9757 8.93327C10.7029 8.98753 10.4523 9.12146 10.2556 9.31813C10.059 9.5148 9.92503 9.76537 9.87077 10.0382C9.81651 10.3109 9.84436 10.5937 9.95079 10.8506C10.0572 11.1076 10.2375 11.3272 10.4687 11.4818C10.7 11.6363 10.9719 11.7188 11.25 11.7188C11.4923 11.7172 11.73 11.6524 11.9394 11.5306C12.1015 11.7886 12.3432 11.9869 12.6279 12.0955C12.9126 12.204 13.2249 12.217 13.5176 12.1323C13.8104 12.0477 14.0676 11.8701 14.2505 11.6264C14.4333 11.3826 14.5319 11.086 14.5312 10.7812V10.3125C14.5302 9.44258 14.1842 8.6086 13.569 7.99347C12.9539 7.37834 12.1199 7.0323 11.25 7.03125ZM11.25 10.7812C11.1573 10.7812 11.0667 10.7538 10.9896 10.7023C10.9125 10.6507 10.8524 10.5775 10.8169 10.4919C10.7815 10.4062 10.7722 10.312 10.7903 10.2211C10.8083 10.1301 10.853 10.0466 10.9185 9.98104C10.9841 9.91549 11.0676 9.87084 11.1586 9.85276C11.2495 9.83467 11.3437 9.84395 11.4294 9.87943C11.515 9.91491 11.5882 9.97499 11.6398 10.0521C11.6913 10.1292 11.7188 10.2198 11.7188 10.3125C11.7187 10.4368 11.6693 10.556 11.5814 10.6439C11.4935 10.7318 11.3743 10.7812 11.25 10.7812Z" fill="white"/>
</g>
</svg>
