<svg width="18" height="18" viewBox="0 0 18 18" fill="none" xmlns="http://www.w3.org/2000/svg">
<g id="Frame">
<path id="Vector" d="M12.0866 13.1243C12.434 13.3493 12.8981 13.2506 13.1243 12.9034C14.8669 10.2202 15.75 8.14984 15.75 6.75C15.75 3.0282 12.7218 0 9 0C5.2782 0 2.25 3.0282 2.25 6.75C2.25 10.2363 7.79242 16.9741 8.42432 17.7308C8.56696 17.9009 8.77771 18 8.99963 18H9C9.22192 18 9.43268 17.9013 9.57532 17.7312C9.60974 17.6902 10.4277 16.71 11.4653 15.2928C11.7098 14.9584 11.6371 14.489 11.3029 14.2443C10.9677 13.9995 10.4985 14.0726 10.2545 14.4067C9.76758 15.072 9.32556 15.6442 8.9978 16.0582C7.13141 13.7075 3.75 8.98645 3.75 6.75C3.75 3.85492 6.10492 1.5 9 1.5C11.8951 1.5 14.25 3.85492 14.25 6.75C14.25 7.82391 13.4033 9.71924 11.8661 12.0866C11.6404 12.434 11.7394 12.8985 12.0866 13.1243Z" fill="#87644C"/>
<path id="Vector_2" d="M6.375 6C6.375 7.44708 7.55255 8.625 9 8.625C10.4471 8.625 11.625 7.44708 11.625 6C11.625 4.55292 10.4471 3.375 9 3.375C7.55255 3.375 6.375 4.55292 6.375 6ZM10.125 6C10.125 6.62018 9.62018 7.125 9 7.125C8.37982 7.125 7.875 6.62018 7.875 6C7.875 5.37982 8.37982 4.875 9 4.875C9.62018 4.875 10.125 5.37982 10.125 6Z" fill="#87644C"/>
</g>
</svg>
