<svg width="35" height="35" viewBox="0 0 35 35" fill="none" xmlns="http://www.w3.org/2000/svg">
<g id="telephone_rw7g29ckvwd9 1">
<g id="layer1">
<path id="path40973" d="M6.53891 1.61427C5.99215 1.6308 5.51182 1.91935 5.10978 2.32137L4.439 2.99107L11.7086 10.3931L12.7639 9.33781C13.3999 8.70184 13.3999 7.65173 12.7639 7.01574L8.06846 2.32137C7.61367 1.86656 7.08566 1.59746 6.53891 1.61427ZM3.66355 3.7644L2.89344 4.53344C1.63329 5.79356 1.6416 7.4424 1.6416 8.20349C1.6416 11.3527 2.90061 16.7972 10.5508 24.4474C18.2009 32.0975 23.6465 33.3576 26.7957 33.3576C27.5569 33.3576 29.2057 33.3659 30.4658 32.1058L31.1622 31.4093L23.8926 24.0073L23.1299 24.771C22.678 25.223 22.3445 25.2769 22.0202 25.2388C21.6959 25.2008 21.3606 25.0131 21.1155 24.8233C19.7786 23.7883 17.6142 22.3069 15.1533 19.8459C12.6923 17.385 11.2108 15.2195 10.1758 13.8826C9.9861 13.6375 9.79848 13.3065 9.76035 12.9822C9.72212 12.6579 9.78081 12.3202 10.2325 11.8682L10.9342 11.1664L3.66355 3.7644ZM26.8214 21.7579C26.4001 21.7579 25.9794 21.9172 25.6614 22.2353L24.6659 23.2319L31.9366 30.6349L32.6778 29.8937C33.0798 29.4917 33.367 29.007 33.3839 28.4603C33.4004 27.9135 33.1326 27.3856 32.6778 26.9307L27.9824 22.2353C27.6644 21.9173 27.2426 21.7579 26.8214 21.7579Z" fill="#BDA392"/>
</g>
</g>
</svg>
