<svg width="18" height="18" viewBox="0 0 18 18" fill="none" xmlns="http://www.w3.org/2000/svg">
<g id="Layer_1" clip-path="url(#clip0_0_325)">
<path id="Vector" d="M17.9773 7.14649C17.9773 7.25838 17.9328 7.36569 17.8537 7.4448C17.7746 7.52392 17.6673 7.56837 17.5554 7.56837C17.4435 7.56837 17.3362 7.52392 17.2571 7.4448C17.178 7.36569 17.1335 7.25838 17.1335 7.14649C17.1335 3.67116 14.3061 0.84375 10.8308 0.84375C10.7189 0.84375 10.6116 0.799303 10.5325 0.720186C10.4533 0.641069 10.4089 0.533763 10.4089 0.421875C10.4089 0.309987 10.4533 0.202681 10.5325 0.123564C10.6116 0.0444474 10.7189 0 10.8308 0C14.7714 0 17.9773 3.2059 17.9773 7.14649ZM10.8308 3.07536C11.9101 3.07659 12.9449 3.5059 13.7081 4.26912C14.4713 5.03233 14.9006 6.06711 14.9019 7.14646C14.9019 7.25835 14.9463 7.36565 15.0254 7.44477C15.1045 7.52388 15.2118 7.56833 15.3237 7.56833C15.4356 7.56833 15.5429 7.52388 15.622 7.44477C15.7012 7.36565 15.7456 7.25835 15.7456 7.14646C15.7456 4.4364 13.5408 2.23161 10.8308 2.23161C10.7189 2.23161 10.6116 2.27606 10.5325 2.35518C10.4533 2.43429 10.4089 2.5416 10.4089 2.65349C10.4089 2.76538 10.4533 2.87268 10.5325 2.9518C10.6116 3.03092 10.7189 3.07536 10.8308 3.07536ZM10.8308 5.30698C11.3185 5.30747 11.7861 5.50143 12.131 5.84629C12.4759 6.19115 12.67 6.65875 12.6705 7.14649C12.6705 7.20189 12.6814 7.25675 12.7026 7.30794C12.7238 7.35912 12.7549 7.40563 12.7941 7.4448C12.8333 7.48398 12.8798 7.51505 12.931 7.53625C12.9821 7.55746 13.037 7.56837 13.0924 7.56837C13.1478 7.56837 13.2027 7.55746 13.2538 7.53625C13.305 7.51505 13.3515 7.48398 13.3907 7.4448C13.4299 7.40563 13.461 7.35912 13.4822 7.30794C13.5034 7.25675 13.5143 7.20189 13.5143 7.14649C13.5135 6.43509 13.2305 5.75305 12.7274 5.25002C12.2244 4.74698 11.5423 4.46403 10.8309 4.46323C10.719 4.46323 10.6117 4.50767 10.5326 4.58679C10.4535 4.66591 10.4091 4.77321 10.4091 4.8851C10.4091 4.99699 10.4535 5.1043 10.5326 5.18341C10.6117 5.26253 10.719 5.30698 10.8309 5.30698H10.8308ZM17.1499 13.8644C17.2143 14.3133 17.0631 14.8006 16.7454 15.1677L14.9479 17.2445C14.6291 17.6128 14.0621 17.9988 13.0869 17.9988C12.7993 17.9968 12.5125 17.9676 12.2304 17.9115C10.3534 17.5508 7.74383 16.0439 5.24981 13.8805C2.75808 11.719 0.896485 9.35002 0.270106 7.54344C-0.234703 6.08769 0.135669 5.23181 0.535219 4.77018L2.33272 2.69336C2.64649 2.33086 3.11955 2.10561 3.56723 2.10561C3.92175 2.10561 4.23622 2.24346 4.45282 2.49374L6.94744 5.37595C7.47359 5.98387 7.47977 6.8259 6.96248 7.42359L6.06368 8.46211C6.01499 8.51836 5.95202 8.6168 5.96732 8.82003C6.01218 9.41418 6.67775 10.3558 7.62356 11.1635C8.81536 12.1813 10.0795 12.6692 10.4415 12.2511L11.3403 11.2126C11.8592 10.6131 12.6938 10.4987 13.37 10.9344L16.6399 13.0415C16.9184 13.221 17.0996 13.5132 17.1499 13.8644ZM16.3148 13.9842C16.2992 13.8756 16.255 13.7971 16.1829 13.7507L12.9131 11.6438C12.6479 11.4729 12.256 11.4441 11.9784 11.7649L11.0796 12.8034C10.7927 13.1348 10.2253 13.4506 9.14952 13.0727C8.50373 12.8459 7.76728 12.3957 7.07576 11.8052C6.64214 11.435 5.22014 10.1301 5.12606 8.8837C5.09759 8.5062 5.20123 8.16957 5.42577 7.91012L6.32465 6.87161C6.60143 6.55168 6.51653 6.16739 6.3096 5.92829L3.81488 3.04587C3.75943 2.98181 3.67615 2.94936 3.56723 2.94936C3.36059 2.94936 3.12641 3.06559 2.97067 3.24552L1.17316 5.32234C0.803567 5.74942 0.767919 6.40368 1.06731 7.26704C1.64739 8.94013 3.41768 11.1742 5.80286 13.2431C8.18965 15.3136 10.6521 16.749 12.3898 17.0829C13.2898 17.2558 13.936 17.1244 14.31 16.6923L16.1075 14.6155C16.2626 14.4361 16.344 14.1883 16.3148 13.9842Z" fill="#87644C"/>
</g>
<defs>
<clipPath id="clip0_0_325">
<rect width="18" height="18" fill="white"/>
</clipPath>
</defs>
</svg>
