<svg width="15" height="15" viewBox="0 0 15 15" fill="none" xmlns="http://www.w3.org/2000/svg">
<g id="telephone_rw7g29ckvwd9 2" clip-path="url(#clip0_0_187)">
<g id="layer1">
<path id="path40973" d="M2.80197 0.691725C2.56764 0.698811 2.36179 0.822475 2.18948 0.994768L1.90201 1.28178L5.01755 4.45408L5.46982 4.00182C5.74239 3.72926 5.74238 3.27921 5.46982 3.00664L3.45749 0.994768C3.26258 0.799851 3.03629 0.684523 2.80197 0.691725ZM1.56967 1.61321L1.23963 1.9428C0.699563 2.48285 0.703126 3.1895 0.703126 3.51568C0.703126 4.86534 1.2427 7.19871 4.52133 10.4773C7.79997 13.756 10.1338 14.296 11.4835 14.296C11.8097 14.296 12.5163 14.2996 13.0563 13.7595L13.3548 13.461L10.2393 10.2887L9.91242 10.616C9.71872 10.8097 9.57579 10.8329 9.4368 10.8165C9.29782 10.8002 9.15414 10.7198 9.04907 10.6385C8.47614 10.1949 7.54852 9.55998 6.49384 8.50529C5.43915 7.4506 4.80423 6.52253 4.36066 5.94959C4.27934 5.84452 4.19893 5.70268 4.18259 5.56369C4.16621 5.4247 4.19136 5.27996 4.38492 5.08626L4.68567 4.78551L1.56967 1.61321ZM11.4944 9.3247C11.3139 9.3247 11.1336 9.39299 10.9973 9.52931L10.5707 9.95641L13.6867 13.1291L14.0044 12.8115C14.1767 12.6392 14.2997 12.4315 14.3069 12.1971C14.314 11.9628 14.1993 11.7366 14.0044 11.5416L11.992 9.52931C11.8558 9.39303 11.675 9.3247 11.4944 9.3247Z" fill="white"/>
</g>
</g>
<defs>
<clipPath id="clip0_0_187">
<rect width="15" height="15" fill="white"/>
</clipPath>
</defs>
</svg>
