<svg width="15" height="15" viewBox="0 0 15 15" fill="none" xmlns="http://www.w3.org/2000/svg">
<g id="Frame">
<path id="Vector" d="M10.0722 10.9369C10.3616 11.1244 10.7484 11.0422 10.9369 10.7529C12.3891 8.51685 13.125 6.79153 13.125 5.625C13.125 2.5235 10.6015 0 7.5 0C4.3985 0 1.875 2.5235 1.875 5.625C1.875 8.53027 6.49368 14.1451 7.02026 14.7757C7.13913 14.9174 7.31476 15 7.49969 15H7.5C7.68494 15 7.86057 14.9178 7.97943 14.776C8.00812 14.7418 8.68973 13.925 9.55444 12.744C9.75815 12.4654 9.69757 12.0741 9.4191 11.8703C9.13971 11.6663 8.74878 11.7271 8.54538 12.0056C8.13965 12.56 7.7713 13.0368 7.49817 13.3818C5.94284 11.4229 3.125 7.48871 3.125 5.625C3.125 3.21243 5.08743 1.25 7.5 1.25C9.91257 1.25 11.875 3.21243 11.875 5.625C11.875 6.51993 11.1694 8.09937 9.88846 10.0722C9.70032 10.3616 9.78287 10.7487 10.0722 10.9369Z" fill="white"/>
<path id="Vector_2" d="M5.3125 5C5.3125 6.2059 6.29379 7.1875 7.5 7.1875C8.7059 7.1875 9.6875 6.2059 9.6875 5C9.6875 3.7941 8.7059 2.8125 7.5 2.8125C6.29379 2.8125 5.3125 3.7941 5.3125 5ZM8.4375 5C8.4375 5.51682 8.01682 5.9375 7.5 5.9375C6.98318 5.9375 6.5625 5.51682 6.5625 5C6.5625 4.48318 6.98318 4.0625 7.5 4.0625C8.01682 4.0625 8.4375 4.48318 8.4375 5Z" fill="white"/>
</g>
</svg>
