<svg width="35" height="35" viewBox="0 0 35 35" fill="none" xmlns="http://www.w3.org/2000/svg">
<g id="Frame">
<path id="Vector" d="M23.5017 25.5194C24.1771 25.957 25.0797 25.7651 25.5194 25.09C28.9078 19.8726 30.625 15.8469 30.625 13.125C30.625 5.88816 24.7368 0 17.5 0C10.2632 0 4.375 5.88816 4.375 13.125C4.375 19.904 15.1519 33.0051 16.3806 34.4766C16.658 34.8074 17.0678 35 17.4993 35H17.5C17.9315 35 18.3413 34.8081 18.6187 34.4773C18.6856 34.3976 20.276 32.4917 22.2937 29.736C22.769 29.0858 22.6277 28.173 21.9779 27.6973C21.326 27.2213 20.4138 27.3633 19.9392 28.0131C18.9925 29.3066 18.133 30.4192 17.4957 31.2242C13.8666 26.6534 7.29167 17.4737 7.29167 13.125C7.29167 7.49568 11.8707 2.91667 17.5 2.91667C23.1293 2.91667 27.7083 7.49568 27.7083 13.125C27.7083 15.2132 26.062 18.8985 23.0731 23.5017C22.6341 24.1771 22.8267 25.0804 23.5017 25.5194Z" fill="#BDA392"/>
<path id="Vector_2" d="M12.3955 11.6667C12.3955 14.4804 14.6852 16.7708 17.4997 16.7708C20.3134 16.7708 22.6038 14.4804 22.6038 11.6667C22.6038 8.8529 20.3134 6.5625 17.4997 6.5625C14.6852 6.5625 12.3955 8.8529 12.3955 11.6667ZM19.6872 11.6667C19.6872 12.8726 18.7056 13.8542 17.4997 13.8542C16.2938 13.8542 15.3122 12.8726 15.3122 11.6667C15.3122 10.4608 16.2938 9.47917 17.4997 9.47917C18.7056 9.47917 19.6872 10.4608 19.6872 11.6667Z" fill="#BDA392"/>
</g>
</svg>
