<svg width="19" height="19" viewBox="0 0 19 19" fill="none" xmlns="http://www.w3.org/2000/svg">
<path d="M17.2976 13.582L15.6002 11.8846C15.293 11.5776 14.9082 11.3597 14.4869 11.2542C14.0656 11.1487 13.6235 11.1595 13.2079 11.2855C12.7922 11.4114 12.4186 11.6479 12.1267 11.9696C11.8349 12.2912 11.6359 12.6861 11.5509 13.112C8.75178 12.5886 6.02941 9.87748 5.85996 7.45426C6.33582 7.36673 6.77376 7.13642 7.11554 6.79395C7.56556 6.34389 7.81837 5.73351 7.81837 5.09707C7.81837 4.46062 7.56556 3.85024 7.11554 3.40018L5.41861 1.70281C4.96854 1.2528 4.35814 1 3.72168 1C3.08522 1 2.47482 1.2528 2.02475 1.70281C-3.06653 6.79395 12.2063 22.0664 17.2976 16.9753C17.7474 16.5252 18 15.9149 18 15.2786C18 14.6423 17.7474 14.0321 17.2976 13.582V13.582Z" stroke="#313454"/>
</svg>
