<svg width="14" height="19" viewBox="0 0 14 19" fill="none" xmlns="http://www.w3.org/2000/svg">
<path d="M7 1C3.6856 1 1 3.36979 1 6.30519C1 11.3807 7 18 7 18C7 18 13 11.3797 13 6.30519C13 3.37086 10.3144 1 7 1V1ZM7 9.24059C6.1407 9.24059 5.31659 8.93816 4.70897 8.39983C4.10136 7.86149 3.76 7.13136 3.76 6.37004C3.76 5.60873 4.10136 4.87859 4.70897 4.34026C5.31659 3.80193 6.1407 3.4995 7 3.4995C7.8593 3.4995 8.68341 3.80193 9.29103 4.34026C9.89864 4.87859 10.24 5.60873 10.24 6.37004C10.24 7.13136 9.89864 7.86149 9.29103 8.39983C8.68341 8.93816 7.8593 9.24059 7 9.24059Z" stroke="#313454"/>
</svg>
