<svg width="15" height="17" viewBox="0 0 15 17" fill="none" xmlns="http://www.w3.org/2000/svg">
<path d="M14.4115 13.8734C14.0353 12.9191 13.4892 12.0523 12.8038 11.3212C12.1205 10.5881 11.3111 10.0035 10.4202 9.59987C10.4122 9.5956 10.4042 9.59347 10.3963 9.5892C11.6389 8.62814 12.4468 7.06269 12.4468 5.29648C12.4468 2.3706 10.2327 0 7.5 0C4.76731 0 2.55322 2.3706 2.55322 5.29648C2.55322 7.06269 3.36106 8.62814 4.60374 9.59133C4.59576 9.5956 4.58779 9.59774 4.57981 9.60201C3.6862 10.0057 2.88434 10.5844 2.19618 11.3234C1.51142 12.055 0.965465 12.9216 0.588477 13.8755C0.218111 14.8093 0.0183648 15.8105 4.98787e-05 16.8249C-0.000482508 16.8477 0.00325156 16.8703 0.0110322 16.8916C0.0188128 16.9128 0.0304825 16.9321 0.0453536 16.9485C0.0602247 16.9648 0.0779963 16.9777 0.0976214 16.9866C0.117246 16.9955 0.138328 17 0.159623 17H1.35642C1.44419 17 1.514 16.9253 1.516 16.8334C1.55589 15.1847 2.17424 13.6406 3.26732 12.4702C4.39829 11.2593 5.90028 10.593 7.5 10.593C9.09972 10.593 10.6017 11.2593 11.7327 12.4702C12.8258 13.6406 13.4441 15.1847 13.484 16.8334C13.486 16.9274 13.5558 17 13.6436 17H14.8404C14.8617 17 14.8828 16.9955 14.9024 16.9866C14.922 16.9777 14.9398 16.9648 14.9546 16.9485C14.9695 16.9321 14.9812 16.9128 14.989 16.8916C14.9967 16.8703 15.0005 16.8477 15 16.8249C14.98 15.804 14.7825 14.8109 14.4115 13.8734ZM7.5 8.96985C6.58445 8.96985 5.72275 8.58756 5.07448 7.89347C4.42622 7.19937 4.06917 6.27676 4.06917 5.29648C4.06917 4.31621 4.42622 3.39359 5.07448 2.6995C5.72275 2.0054 6.58445 1.62312 7.5 1.62312C8.41555 1.62312 9.27725 2.0054 9.92552 2.6995C10.5738 3.39359 10.9308 4.31621 10.9308 5.29648C10.9308 6.27676 10.5738 7.19937 9.92552 7.89347C9.27725 8.58756 8.41555 8.96985 7.5 8.96985Z" fill="#313454"/>
</svg>
