<svg width="22" height="22" viewBox="0 0 22 22" fill="none" xmlns="http://www.w3.org/2000/svg">
<path id="&#208;&#162;&#208;&#181;&#208;&#187;&#208;&#181;&#209;&#132;&#208;&#190;&#208;&#189;" d="M20.1737 15.8023L18.1767 13.8054C17.8153 13.4442 17.3626 13.1879 16.867 13.0637C16.3713 12.9396 15.8512 12.9523 15.3622 13.1005C14.8732 13.2488 14.4336 13.5269 14.0903 13.9054C13.747 14.2838 13.5128 14.7483 13.4128 15.2494C10.1197 14.6337 6.91695 11.4441 6.7176 8.59325C7.27743 8.49027 7.79266 8.21931 8.19476 7.81642C8.72419 7.28693 9.02161 6.56884 9.02161 5.82008C9.02161 5.07132 8.72419 4.35323 8.19476 3.82374L6.19837 1.82683C5.66887 1.29742 4.95075 1 4.20198 1C3.4532 1 2.73509 1.29742 2.20559 1.82683C-3.78415 7.81642 14.1839 25.784 20.1737 19.7944C20.7028 19.2649 21 18.547 21 17.7984C21 17.0498 20.7028 16.3319 20.1737 15.8023V15.8023Z" stroke="#EFE1D4" stroke-width="2"/>
</svg>
