<svg width="15" height="23" viewBox="0 0 15 23" fill="none" xmlns="http://www.w3.org/2000/svg">
<path id="pin" d="M7.36364 1C3.84836 1 1 3.78799 1 7.2414C1 13.2126 7.36364 21 7.36364 21C7.36364 21 13.7273 13.2114 13.7273 7.2414C13.7273 3.78924 10.8789 1 7.36364 1V1ZM7.36364 10.6948C6.45226 10.6948 5.5782 10.339 4.93376 9.70568C4.28932 9.07235 3.92727 8.21336 3.92727 7.3177C3.92727 6.42203 4.28932 5.56305 4.93376 4.92972C5.5782 4.29639 6.45226 3.94059 7.36364 3.94059C8.27502 3.94059 9.14907 4.29639 9.79351 4.92972C10.438 5.56305 10.8 6.42203 10.8 7.3177C10.8 8.21336 10.438 9.07235 9.79351 9.70568C9.14907 10.339 8.27502 10.6948 7.36364 10.6948Z" stroke="#EFE1D4" stroke-width="2"/>
</svg>
