<svg width="75" height="80" viewBox="0 0 75 80" fill="none" xmlns="http://www.w3.org/2000/svg">
<g id="line">
<path id="Vector" d="M53.739 49.8352C49.2375 49.1291 44.844 47.7872 40.6744 45.8447C40.1675 45.6115 39.6114 45.5269 39.0636 45.5996C38.5157 45.6724 37.996 45.8999 37.5582 46.2585L34.5999 48.6706C34.4401 48.813 34.2502 48.9116 34.0466 48.958C33.843 49.0043 33.6318 48.9971 33.4315 48.9368C30.4984 47.8558 26.8877 44.0405 26.8614 44.0124C26.8248 43.9734 23.2783 40.0848 22.2735 36.9244C22.2163 36.7047 22.2091 36.4735 22.2527 36.2502C22.2963 36.0269 22.3894 35.818 22.5242 35.6409L24.7649 32.4585C25.096 31.9883 25.3054 31.4336 25.3723 30.8499C25.4392 30.2663 25.3611 29.6741 25.146 29.1327C23.3394 24.6357 22.0925 19.9058 21.437 15.0635C21.3418 14.261 20.9752 13.5232 20.406 12.9887C19.8368 12.4542 19.1043 12.1597 18.346 12.1606H7.97979C7.5253 12.1652 7.07652 12.2692 6.66122 12.4661C6.24591 12.6631 5.8729 12.9489 5.56526 13.3057C5.25763 13.6626 5.0219 14.083 4.87267 14.5409C4.72345 14.9989 4.66388 15.4846 4.69767 15.9681C7.0291 46.961 24.0453 65.4418 53.158 67.8383C54.0309 67.8289 54.8652 67.4529 55.4801 66.792C56.095 66.1311 56.441 65.2383 56.4432 64.3072V53.15C56.4471 52.3413 56.1747 51.5588 55.677 50.9488C55.1793 50.3387 54.4904 49.9429 53.739 49.8352ZM54.0994 64.3072C54.1005 64.4472 54.0746 64.5858 54.0234 64.7147C53.9722 64.8435 53.8967 64.9597 53.8017 65.0561C53.7066 65.1526 53.594 65.2271 53.4708 65.2752C53.3476 65.3233 53.2164 65.3439 53.0855 65.3357C25.1052 62.8735 9.28057 45.3624 7.03488 15.765C7.02435 15.6252 7.04088 15.4846 7.08346 15.352C7.12603 15.2193 7.19373 15.0974 7.28236 14.9938C7.37098 14.8902 7.47863 14.8072 7.59861 14.7499C7.71859 14.6926 7.84834 14.6622 7.9798 14.6606H18.3458C18.5325 14.6593 18.7132 14.7306 18.8541 14.8611C18.9951 14.9917 19.0866 15.1725 19.1115 15.3699C19.7952 20.444 21.0991 25.4007 22.9899 30.1135C23.0443 30.251 23.0637 30.4014 23.0462 30.5495C23.0287 30.6976 22.9749 30.8382 22.8902 30.957L20.6495 34.1394C17.5638 37.6601 24.977 45.4465 25.1963 45.7722C25.3587 45.9448 29.2223 50.0305 32.667 51.3C35.0243 52.3069 37.2375 49.5098 38.9818 48.2446C39.0879 48.1562 39.2142 48.0997 39.3476 48.081C39.481 48.0623 39.6167 48.0822 39.7406 48.1384C44.115 50.1734 48.724 51.5782 53.446 52.3157C53.6313 52.3464 53.7999 52.448 53.9201 52.6015C54.0403 52.755 54.1041 52.95 54.0994 53.15V64.3072Z" fill="#678C41"/>
<path id="Vector_2" d="M70.3125 17.4336C70.306 16.1485 69.8265 14.9176 68.9774 14.0059C68.1283 13.0942 66.9774 12.5747 65.7727 12.5594H36.4266C35.8328 12.552 35.2439 12.6751 34.6966 12.921C34.1493 13.1669 33.6554 13.5303 33.2455 13.9886C32.8167 14.4385 32.4759 14.9747 32.2427 15.566C32.0095 16.1573 31.8885 16.7921 31.8867 17.4336V36.0579C31.8879 37.3463 32.3652 38.5822 33.2151 39.4977C34.0649 40.4132 35.2188 40.9345 36.4266 40.9486H65.7727C66.9803 40.934 68.1339 40.4125 68.9836 39.4971C69.8333 38.5817 70.3108 37.3461 70.3125 36.0579V17.4336ZM56.1671 26.3058L67.8008 16.5308C67.9111 16.8173 67.9681 17.1239 67.9688 17.4336V36.0579C67.9666 36.3381 67.9189 36.6159 67.8278 36.8787L56.1671 26.3058ZM34.3705 36.8795C34.2799 36.6163 34.2325 36.3383 34.2304 36.0579V17.4336C34.2311 17.1239 34.2885 16.8172 34.3996 16.531L46.0321 26.3057L34.3705 36.8795ZM48.6099 25.2893L36.4368 15.0594H65.7634L53.5915 25.2864L51.1001 27.3793L48.6099 25.2893ZM36.4266 38.4486C35.7233 38.6514 48.0818 27.8724 47.9104 27.8826L50.3758 29.9526C50.5824 30.1262 50.8377 30.2206 51.1008 30.2206C51.3638 30.2206 51.6191 30.1262 51.8257 29.9526L54.2893 27.8834L65.9244 38.4332C65.8495 38.4915 36.5349 38.4237 36.4266 38.4486Z" fill="#678C41"/>
</g>
</svg>
