<svg width="76" height="80" viewBox="0 0 76 80" fill="none" xmlns="http://www.w3.org/2000/svg">
<g id="Capa_1" opacity="0.8" clip-path="url(#clip0_1_13431)">
<g id="Group">
<g id="Group_2">
<path id="Vector" d="M31.297 48.251C29.3072 48.251 27.6885 49.955 27.6885 52.0494C27.6885 54.1438 29.3073 55.8477 31.297 55.8477C33.2865 55.8478 34.9054 54.1439 34.9054 52.0494C34.9054 49.955 33.2866 48.251 31.297 48.251ZM31.297 53.501C30.5367 53.501 29.9179 52.85 29.9179 52.0494C29.9179 51.2489 30.5365 50.5977 31.297 50.5977C32.0574 50.5977 32.676 51.2489 32.676 52.0494C32.6758 52.8497 32.0573 53.501 31.297 53.501Z" fill="#678C41"/>
</g>
</g>
<g id="Group_3">
<g id="Group_4">
<path id="Vector_2" d="M32.8557 56.9463C31.2098 56.9463 29.8706 58.3558 29.8706 60.0885C29.8706 61.821 31.2097 63.2307 32.8557 63.2307C34.5017 63.2307 35.8408 61.8211 35.8408 60.0885C35.8406 58.3558 34.5016 56.9463 32.8557 56.9463ZM32.8557 60.8838C32.4389 60.8838 32.1 60.5269 32.1 60.0883C32.1 59.6497 32.4389 59.2929 32.8557 59.2929C33.2725 59.2929 33.6112 59.6497 33.6112 60.0883C33.6112 60.5269 33.2722 60.8838 32.8557 60.8838Z" fill="#678C41"/>
</g>
</g>
<g id="Group_5">
<g id="Group_6">
<path id="Vector_3" d="M16.8952 45.8486H10.2071C9.59133 45.8486 9.09229 46.3739 9.09229 47.0221C9.09229 47.6702 9.59118 48.1955 10.2071 48.1955H16.8952C17.5109 48.1955 18.01 47.6702 18.01 47.0221C18.01 46.3739 17.5108 45.8486 16.8952 45.8486Z" fill="#678C41"/>
</g>
</g>
<g id="Group_7">
<g id="Group_8">
<path id="Vector_4" d="M16.8952 50.855H10.2071C9.59133 50.855 9.09229 51.3803 9.09229 52.0284C9.09229 52.6765 9.59118 53.2019 10.2071 53.2019H16.8952C17.5109 53.2019 18.01 52.6765 18.01 52.0284C18.01 51.3803 17.5108 50.855 16.8952 50.855Z" fill="#678C41"/>
</g>
</g>
<g id="Group_9">
<g id="Group_10">
<path id="Vector_5" d="M70.1741 21.9833V17.6886C71.4928 17.446 72.4994 16.2349 72.4994 14.7783V11.6492C72.4994 10.0186 71.239 8.69189 69.6899 8.69189H54.6137C53.0646 8.69189 51.8042 10.0186 51.8042 11.6492V14.7783C51.8042 16.2349 52.8108 17.4458 54.1295 17.6886V21.9833C50.7471 22.8813 48.3036 26.1038 48.3036 29.8664V34.4244C47.8053 34.3324 47.2937 34.2817 46.7709 34.2817H46.7474L46.2516 34.2831L46.2347 27.5041C47.2733 27.003 47.9979 25.901 47.9979 24.6219V21.5636C47.9979 19.8149 46.6462 18.3921 44.9849 18.3921H30.7016C29.0402 18.3921 27.6886 19.8149 27.6886 21.5636V24.6219C27.6886 25.9874 28.5142 27.1508 29.6664 27.5964L29.6832 34.3289L29.1871 34.3303C28.6821 34.3317 28.1843 34.3799 27.6964 34.468V29.8667C27.6964 26.1039 25.2529 22.8817 21.8706 21.9836V17.6889C23.1894 17.4463 24.1959 16.2352 24.1959 14.7786V11.6494C24.1959 10.0188 22.9355 8.69205 21.3864 8.69205H6.31008C4.76098 8.69205 3.5006 10.0188 3.5006 11.6494V14.7783C3.5006 16.2349 4.50716 17.4458 5.82588 17.6886V21.9833C2.44343 22.8813 0 26.1036 0 29.8664V62.7775C0 64.9164 1.653 66.6564 3.68496 66.6564H20.4119L20.414 67.4902C20.4165 68.5127 20.7971 69.473 21.4859 70.1942C22.1723 70.913 23.0826 71.3085 24.0504 71.3085H24.0602L52.0579 71.2313C54.0633 71.2256 55.6905 69.5038 55.6853 67.393L55.6835 66.6564H72.3152C74.347 66.6564 76.0001 64.9164 76.0001 62.7775V29.8664C76 26.1036 73.5564 22.8813 70.1741 21.9833ZM54.0338 14.7783V11.6492C54.0338 11.3125 54.294 11.0386 54.6139 11.0386H69.6899C70.0098 11.0386 70.27 11.3125 70.27 11.6492V14.7783C70.27 15.115 70.0098 15.3889 69.6899 15.3889H54.6143C54.6139 15.3889 54.6143 15.3889 54.6139 15.3889C54.294 15.3889 54.0338 15.115 54.0338 14.7783ZM29.9179 21.5633C29.9179 21.1085 30.2695 20.7385 30.7016 20.7385H44.9849C45.417 20.7385 45.7685 21.1085 45.7685 21.5633V24.6216C45.7685 25.0192 45.4997 25.3522 45.1433 25.4296C45.1348 25.4294 45.1265 25.4281 45.1179 25.4281H45.1149L40.9192 25.4397C40.9187 25.4397 40.9181 25.4396 40.9177 25.4396L38.4269 25.4464H30.7013C30.2692 25.4464 29.9177 25.0764 29.9177 24.6216V21.5633H29.9179ZM44.4358 47.6658H49.1984L49.2023 49.2355H39.418C38.3629 49.2355 37.5076 50.1358 37.5076 51.2464V52.2571C37.5076 52.905 38.0067 53.4305 38.6224 53.4305C39.2381 53.4305 39.7372 52.9052 39.7372 52.2571V51.5824H49.1971V60.8841H39.7372V59.0878C39.7372 58.4399 39.2381 57.9144 38.6224 57.9144C38.0067 57.9144 37.5076 58.4397 37.5076 59.0878V61.2197C37.5076 62.3303 38.3629 63.2306 39.418 63.2306H49.2372L49.2403 64.4624L26.8439 64.5241L26.802 47.666H39.1991C39.8093 47.666 40.3417 47.171 40.36 46.5288C40.3789 45.8644 39.873 45.3192 39.2457 45.3192H26.7961L26.7919 43.6586C26.7884 42.253 27.8681 41.1103 29.2037 41.1066L35.0226 41.0906C35.6379 41.0889 36.1355 40.5628 36.1344 39.9152L36.1143 27.7997L38.4636 27.7933H39.8075L39.8276 39.9031C39.8282 40.2144 39.9462 40.5128 40.1558 40.7327C40.3648 40.9516 40.6475 41.0746 40.9423 41.0746H40.9453L46.7615 41.0583C48.0963 41.0583 49.1852 42.1971 49.1885 43.5969L49.1928 45.3194H44.3893C43.7623 45.3194 43.2562 45.8642 43.275 46.5289C43.2933 47.1708 43.8256 47.6658 44.4358 47.6658ZM5.72998 14.7783V11.6492C5.72998 11.3125 5.9902 11.0386 6.31008 11.0386H21.3861C21.706 11.0386 21.9662 11.3125 21.9662 11.6492V14.7783C21.9662 15.115 21.706 15.3889 21.3861 15.3889H6.31052H6.31008C5.9902 15.3889 5.72998 15.115 5.72998 14.7783ZM3.68496 64.3099V64.3097C2.88251 64.3097 2.22953 63.6224 2.22953 62.7777V29.8664C2.22953 26.9363 4.31137 24.4672 7.07186 24.1227C7.6328 24.0527 8.05526 23.5521 8.05526 22.9575V17.7356H10.3198V26.1181L7.33816 26.49C5.71677 26.6922 4.49409 28.1436 4.49409 29.8664V33.7339C4.48845 33.7819 4.48459 33.8306 4.48459 33.8803V41.5464C4.48459 41.5961 4.48845 41.6447 4.49409 41.6928V60.7525C4.49409 61.4005 4.99299 61.926 5.60886 61.926H20.3999L20.4059 64.3099H3.68496ZM6.72363 35.0536H15.1859V40.3728H6.72363V35.0536ZM20.9726 40.2225C20.5651 41.3075 20.3517 42.4742 20.3546 43.676L20.3941 59.5788H6.72363V42.7197H16.3005C16.9162 42.7197 17.4153 42.1944 17.4153 41.5463V33.8802C17.4153 33.2322 16.9164 32.7067 16.3005 32.7067H6.72363V29.8663C6.72363 29.3324 7.10051 28.8827 7.60059 28.8203L11.5658 28.3256C12.1267 28.2556 12.5492 27.755 12.5492 27.1603V17.7352H15.147V27.1603C15.147 27.755 15.5696 28.2555 16.1304 28.3256L20.0958 28.8203C20.5956 28.8825 20.9726 29.3322 20.9726 29.8663V40.2225ZM20.3582 26.49L17.3764 26.1181V17.7356H19.641V22.9575C19.641 23.5522 20.0636 24.0527 20.6244 24.1227C23.385 24.4672 25.4667 26.9363 25.4667 29.8664V35.1999C24.646 35.6031 23.8824 36.1413 23.202 36.8039V29.8663C23.202 28.1438 21.9794 26.6922 20.3582 26.49ZM52.0521 68.8844L24.0544 68.9616H24.0506C23.6761 68.9616 23.3238 68.8086 23.0583 68.5303C22.7918 68.2513 22.6444 67.8796 22.6434 67.4838L22.5843 43.6699C22.5797 41.8067 23.2646 40.0533 24.513 38.7325C25.7613 37.4117 27.4234 36.6816 29.1932 36.6767L30.804 36.6724C31.0997 36.6716 31.383 36.5472 31.5915 36.3266C31.7999 36.106 31.9167 35.8072 31.916 35.496L31.8968 27.8113L33.8856 27.8058L33.9039 38.7467L29.1987 38.7597C26.6361 38.7667 24.5568 40.967 24.5633 43.6646L24.6179 65.7038C24.6187 66.015 24.737 66.3131 24.9466 66.5327C25.1554 66.7514 25.438 66.8742 25.7327 66.8742H25.7356L50.3614 66.8064C50.6571 66.8056 50.9403 66.6813 51.1489 66.4606C51.3573 66.24 51.4741 65.9413 51.4734 65.63L51.4257 46.4931V46.4928C51.4257 46.4927 51.4257 46.4927 51.4257 46.4927L51.4185 43.591C51.4119 40.9005 49.3231 38.7116 46.7591 38.7116L42.0558 38.7246L42.0376 27.7933H44.0065L44.0257 35.4625C44.0273 36.1096 44.5259 36.6328 45.1404 36.6328H45.1434L46.754 36.6285H46.7715C50.4169 36.6285 53.3879 39.7453 53.3974 43.5852L53.4565 67.3991C53.458 68.2158 52.828 68.8824 52.0521 68.8844ZM52.7979 29.8664V36.7822C52.1302 36.1285 51.3672 35.5811 50.5332 35.1672V29.8664C50.5332 26.9363 52.6149 24.4672 55.3755 24.1227C55.9364 24.0527 56.3589 23.5521 56.3589 22.9575V17.7356H58.6235V26.1181L55.6418 26.49C54.0206 26.6922 52.7979 28.1438 52.7979 29.8664ZM55.6261 43.5789C55.6231 42.4003 55.4108 41.2733 55.0274 40.2356V29.8663C55.0274 29.3324 55.4043 28.8827 55.9042 28.8203L59.8694 28.3256C60.4304 28.2556 60.8528 27.755 60.8528 27.1603V17.7352H63.4506V27.1603C63.4506 27.755 63.8732 28.2555 64.434 28.3256L68.3994 28.8203C68.8992 28.8825 69.2761 29.3322 69.2761 29.8663V31.4552H63.4149C62.7993 31.4552 62.3001 31.9805 62.3001 32.6286V34.7883C62.3001 35.4363 62.7992 35.9617 63.4149 35.9617C64.0306 35.9617 64.5296 35.4364 64.5296 34.7883V33.8021H69.2762V55.0791H64.5296V41.6188C64.5296 40.9708 64.0306 40.4453 63.4149 40.4453C62.7992 40.4453 62.3001 40.9706 62.3001 41.6188V56.2524C62.3001 56.9003 62.7992 57.4258 63.4149 57.4258H69.2761V59.5789H55.6656L55.6261 43.5789ZM72.315 64.3097H55.6777L55.6718 61.9258H70.3911C71.0069 61.9258 71.5059 61.4005 71.5059 60.7524V56.3989C71.5115 56.351 71.5154 56.3022 71.5154 56.2525V32.6285C71.5154 32.5788 71.5115 32.5302 71.5059 32.4821V29.8663C71.5059 28.1436 70.2832 26.6921 68.662 26.4899L65.6802 26.118V17.7355H67.9447V22.9574C67.9447 23.5521 68.3673 24.0525 68.9281 24.1227C71.6888 24.4672 73.7705 26.9363 73.7705 29.8664V62.7777C73.7705 63.6224 73.1175 64.3097 72.315 64.3097Z" fill="#678C41"/>
</g>
</g>
</g>
<defs>
<clipPath id="clip0_1_13431">
<rect width="76" height="80" fill="white"/>
</clipPath>
</defs>
</svg>
