<svg width="20" height="20" viewBox="0 0 20 20" fill="none" xmlns="http://www.w3.org/2000/svg">
<path id="&#208;&#162;&#208;&#181;&#208;&#187;&#208;&#181;&#209;&#132;&#208;&#190;&#208;&#189;" d="M19.1737 14.8023L17.1767 12.8054C16.8153 12.4442 16.3626 12.1879 15.867 12.0637C15.3713 11.9396 14.8512 11.9523 14.3622 12.1005C13.8732 12.2488 13.4336 12.5269 13.0903 12.9054C12.747 13.2838 12.5128 13.7483 12.4128 14.2494C9.11975 13.6337 5.91695 10.4441 5.7176 7.59325C6.27743 7.49027 6.79266 7.21931 7.19476 6.81642C7.72419 6.28693 8.02161 5.56884 8.02161 4.82008C8.02161 4.07132 7.72419 3.35323 7.19476 2.82374L5.19837 0.826834C4.66887 0.297417 3.95075 0 3.20198 0C2.4532 0 1.73509 0.297417 1.20559 0.826834C-4.78415 6.81642 13.1839 24.784 19.1737 18.7944C19.7028 18.2649 20 17.547 20 16.7984C20 16.0498 19.7028 15.3319 19.1737 14.8023Z" fill="#678C41"/>
</svg>
