<svg width="76" height="80" viewBox="0 0 76 80" fill="none" xmlns="http://www.w3.org/2000/svg">
<g id="partner_vxj4frwcix6m 1">
<g id="Group">
<g id="Group_2">
<path id="Vector" d="M67.6875 27.9419H65.6379C67.6174 26.1081 68.875 23.4294 68.875 20.4419C68.875 14.9281 64.6131 10.4419 59.375 10.4419C54.1369 10.4419 49.875 14.9281 49.875 20.4419C49.875 23.4294 51.1326 26.1081 53.1121 27.9419H51.0625C46.4787 27.9419 42.75 31.8681 42.75 36.6919V42.9419H38H33.25V36.6919C33.25 31.8681 29.5212 27.9419 24.9375 27.9419H22.8879C24.8674 26.1081 26.125 23.4294 26.125 20.4419C26.125 14.9281 21.8631 10.4419 16.625 10.4419C11.3869 10.4419 7.125 14.9281 7.125 20.4419C7.125 23.4294 8.38256 26.1081 10.3621 27.9419H8.3125C3.72875 27.9419 0 31.8681 0 36.6919V54.1919C0 54.8831 0.532 55.4419 1.1875 55.4419H7.125V76.6919C7.125 77.3831 7.657 77.9419 8.3125 77.9419H16.625H24.9375C25.593 77.9419 26.125 77.3831 26.125 76.6919V51.6594C27.1201 52.4531 28.3456 52.9419 29.6875 52.9419H38H46.3125C47.6544 52.9419 48.8799 52.4531 49.875 51.6594V76.6919C49.875 77.3831 50.407 77.9419 51.0625 77.9419H59.375H67.6875C68.343 77.9419 68.875 77.3831 68.875 76.6919V55.4419H74.8125C75.468 55.4419 76 54.8831 76 54.1919V36.6919C76 31.8681 72.2712 27.9419 67.6875 27.9419ZM9.5 20.4419C9.5 16.3056 12.6956 12.9419 16.625 12.9419C20.5544 12.9419 23.75 16.3056 23.75 20.4419C23.75 24.5781 20.5544 27.9419 16.625 27.9419C12.6956 27.9419 9.5 24.5781 9.5 20.4419ZM36.8125 50.4419H29.6875C27.7234 50.4419 26.125 48.7594 26.125 46.6919V42.9419V36.6919H23.75V42.9419V46.6919V75.4419H17.8125V52.9419H15.4375V75.4419H9.5V36.6919H7.125V52.9419H2.375V36.6919C2.375 33.2456 5.03856 30.4419 8.3125 30.4419H24.9375C28.2114 30.4419 30.875 33.2456 30.875 36.6919V44.1919C30.875 44.8831 31.407 45.4419 32.0625 45.4419H36.8125V50.4419ZM52.25 20.4419C52.25 16.3056 55.4456 12.9419 59.375 12.9419C63.3044 12.9419 66.5 16.3056 66.5 20.4419C66.5 24.5781 63.3044 27.9419 59.375 27.9419C55.4456 27.9419 52.25 24.5781 52.25 20.4419ZM73.625 52.9419H68.875V36.6919H66.5V75.4419H60.5625V52.9419H58.1875V75.4419H52.25V46.6919V42.9419V36.6919H49.875V42.9419V46.6919C49.875 48.7594 48.2766 50.4419 46.3125 50.4419H39.1875V45.4419H43.9375C44.593 45.4419 45.125 44.8831 45.125 44.1919V36.6919C45.125 33.2456 47.7886 30.4419 51.0625 30.4419H67.6875C70.9614 30.4419 73.625 33.2456 73.625 36.6919V52.9419Z" fill="#678C41"/>
</g>
</g>
<g id="Group_3">
<g id="Group_4">
<path id="Vector_2" d="M54.2769 5.79936L50.7227 2.05811L49.0436 3.82561L50.579 5.44186H41.554C41.2393 5.44186 40.9365 5.57311 40.7145 5.80811L37.9915 8.67436L35.2686 5.80811C35.0465 5.57311 34.7437 5.44186 34.429 5.44186H25.404L26.9395 3.82561L25.2603 2.05811L21.7061 5.79936C21.2418 6.28811 21.2418 7.07811 21.7061 7.56686L25.277 11.3256L26.9561 9.55811L25.4206 7.94186H33.9374L36.3124 10.4419L33.9374 12.9419H28.4998V15.4419H34.429C34.7437 15.4419 35.0465 15.3106 35.2686 15.0756L37.9915 12.2094L40.7145 15.0756C40.9377 15.3106 41.2393 15.4419 41.554 15.4419H47.4998V12.9419H42.0456L39.6706 10.4419L42.0456 7.94186H50.5624L49.027 9.55811L50.7061 11.3256L54.2769 7.56686C54.7412 7.07811 54.7412 6.28811 54.2769 5.79936Z" fill="#678C41"/>
</g>
</g>
</g>
</svg>
